<svg width="144" height="35" viewBox="0 0 144 35" fill="none" xmlns="http://www.w3.org/2000/svg">
<path d="M55.4882 13.7366L53.5728 17.2584C52.9117 18.4772 52.9117 19.9748 53.5728 21.1936L59.0468 31.274C58.3856 30.0552 58.3856 28.5577 59.0468 27.339L61.3025 23.1869L63.6652 18.7664L64.8805 19.5102C65.0847 19.634 65.318 19.3965 65.2014 19.1693L61.6039 12.5178L54.3798 12.5385C54.1465 12.5385 54.059 12.869 54.2631 12.9929L55.4882 13.7366Z" fill="url(#paint0_linear_512_137)"/>
<path d="M61.3123 23.187L59.0565 27.3391C58.3954 28.5577 58.3954 30.0553 59.0565 31.2741C59.7177 32.5032 60.9525 33.2571 62.2943 33.2571H67.2626V23.2284L61.3123 23.187Z" fill="url(#paint1_linear_512_137)"/>
<path d="M61.6039 12.5073L54.3798 12.528C54.1465 12.528 54.059 12.8585 54.2631 12.9824L55.4785 13.726L53.5728 17.2583C52.9117 18.4771 52.9117 19.9748 53.5728 21.1933L56.305 26.213C55.6438 24.9942 55.6438 23.4966 56.305 22.2778L58.2106 18.7663L61.6039 12.5073Z" fill="url(#paint2_linear_512_137)"/>
<path d="M67.2527 28.2276H62.2843C61.137 28.2276 60.0675 27.6698 59.3674 26.7402L59.0466 27.3394C58.3854 28.5582 58.3854 30.0556 59.0466 31.2744C59.7175 32.5035 60.9523 33.2575 62.294 33.2575H67.2624V28.2276H67.2527Z" fill="url(#paint3_linear_512_137)"/>
<path d="M81.1953 5.48432L79.28 1.96237C78.6188 0.753961 77.3937 0 76.0714 0H65.1137C66.436 0 67.6611 0.753961 68.3223 1.97271L70.578 6.12468L72.999 10.5142L71.7836 11.2578C71.5795 11.3818 71.6572 11.7123 71.9002 11.7123L79.1244 11.733L82.7218 5.08153C82.8385 4.86463 82.6052 4.61674 82.401 4.74068L81.1953 5.48432Z" fill="url(#paint4_linear_512_137)"/>
<path d="M70.5783 6.12468L68.3227 1.97269C67.6616 0.753961 66.4365 0 65.1142 0C63.7724 0 62.5376 0.753961 61.8764 1.98303L59.3874 6.55847L67.5643 11.578L70.5783 6.12468Z" fill="url(#paint5_linear_512_137)"/>
<path d="M79.1344 11.733L82.7317 5.08153C82.8484 4.86463 82.6151 4.61674 82.4109 4.74068L81.1956 5.48432L79.2802 1.96237C78.619 0.753961 77.3939 0 76.0716 0H70.617C71.9394 0 73.1645 0.753961 73.8257 1.97271L75.7313 5.48432L79.1344 11.733Z" fill="url(#paint6_linear_512_137)"/>
<path d="M63.5002 9.07856L65.9795 4.51346C66.5531 3.45997 67.5352 2.75765 68.6533 2.57173L68.3324 1.97269C67.6616 0.753961 66.4365 0 65.1142 0C63.7724 0 62.5376 0.753961 61.8764 1.98303L59.3874 6.55847L63.5002 9.07856Z" fill="url(#paint7_linear_512_137)"/>
<path d="M75.0604 33.257H78.8815C80.2039 33.257 81.429 32.5031 82.0902 31.2843L87.5641 21.204C86.9029 22.4226 85.6778 23.1766 84.3555 23.1766H79.8442L75.0507 23.2075V21.7204C75.0507 21.4724 74.7397 21.3795 74.623 21.5964L70.9962 28.2272L74.623 34.8578C74.7397 35.0747 75.0507 34.9818 75.0507 34.734L75.0604 33.257Z" fill="url(#paint8_linear_512_137)"/>
<path d="M79.8537 23.1866H84.3652C85.6875 23.1866 86.9126 22.4325 87.5738 21.2138C88.2447 19.9847 88.2447 18.4664 87.5738 17.2374L85.0943 12.6724L76.9174 17.692L79.8537 23.1866Z" fill="url(#paint9_linear_512_137)"/>
<path d="M71.0059 28.2476L74.6325 34.8784C74.7492 35.0953 75.0602 35.0022 75.0602 34.7544V33.2568H78.8813C80.2037 33.2568 81.4288 32.5029 82.09 31.2841L84.8221 26.2646C84.1609 27.4832 82.9358 28.2373 81.6135 28.2373H77.7923L71.0059 28.2476Z" fill="url(#paint10_linear_512_137)"/>
<path opacity="0.5" d="M81.1953 5.48432L79.28 1.96237C78.6188 0.753961 77.3937 0 76.0714 0H65.1137C66.436 0 67.6611 0.753961 68.3223 1.97271L70.578 6.12468L72.999 10.5142L71.7836 11.2578C71.5795 11.3818 71.6572 11.7123 71.9002 11.7123L79.1244 11.733L82.7218 5.08153C82.8385 4.86463 82.6052 4.61674 82.401 4.74068L81.1953 5.48432Z" fill="url(#paint11_radial_512_137)"/>
<path opacity="0.5" d="M70.578 6.12468L68.3223 1.97269C67.6611 0.753961 66.4361 0 65.1138 0C63.772 0 62.5372 0.753961 61.8761 1.98303C68.332 1.96237 67.5736 11.5677 67.5736 11.5677L70.578 6.12468Z" fill="url(#paint12_linear_512_137)"/>
<path opacity="0.5" d="M61.3123 23.187L59.0565 27.3391C58.3954 28.5577 58.3954 30.0553 59.0565 31.2741C59.7177 32.5032 60.9525 33.2571 62.2943 33.2571C59.0565 27.3286 67.2626 23.2284 67.2626 23.2284L61.3123 23.187Z" fill="url(#paint13_linear_512_137)"/>
<path opacity="0.5" d="M75.0604 33.257H78.8815C80.2039 33.257 81.429 32.5031 82.0902 31.2843L87.5641 21.204C86.9029 22.4226 85.6778 23.1766 84.3555 23.1766H79.8442L75.0507 23.2075V21.7204C75.0507 21.4724 74.7397 21.3795 74.623 21.5964L70.9962 28.2272L74.623 34.8578C74.7397 35.0747 75.0507 34.9818 75.0507 34.734L75.0604 33.257Z" fill="url(#paint14_linear_512_137)"/>
<path d="M1.53409 28V26.4659L10.9432 12.4205H1.43182V10.5455H13.4659V12.0795L4.05682 26.125H13.5682V28H1.53409ZM17.8295 28H15.6136L22.0227 10.5455H24.2045L30.6136 28H28.3977L23.1818 13.3068H23.0455L17.8295 28ZM18.6477 21.1818H27.5795V23.0568H18.6477V21.1818ZM33.3324 28V10.5455H39.4347C40.6506 10.5455 41.6534 10.7557 42.4432 11.1761C43.233 11.5909 43.821 12.1506 44.2074 12.8551C44.5938 13.554 44.7869 14.3295 44.7869 15.1818C44.7869 15.9318 44.6534 16.5511 44.3864 17.0398C44.125 17.5284 43.7784 17.9148 43.3466 18.1989C42.9205 18.483 42.4574 18.6932 41.9574 18.8295V19C42.4915 19.0341 43.0284 19.2216 43.5682 19.5625C44.108 19.9034 44.5597 20.392 44.9233 21.0284C45.2869 21.6648 45.4688 22.4432 45.4688 23.3636C45.4688 24.2386 45.2699 25.0256 44.8722 25.7244C44.4744 26.4233 43.8466 26.9773 42.9886 27.3864C42.1307 27.7955 41.0142 28 39.6392 28H33.3324ZM35.446 26.125H39.6392C41.0199 26.125 42 25.858 42.5795 25.3239C43.1648 24.7841 43.4574 24.1307 43.4574 23.3636C43.4574 22.7727 43.3068 22.2273 43.0057 21.7273C42.7045 21.2216 42.2756 20.8182 41.7188 20.517C41.1619 20.2102 40.5028 20.0568 39.7415 20.0568H35.446V26.125ZM35.446 18.2159H39.3665C40.0028 18.2159 40.5767 18.0909 41.0881 17.8409C41.6051 17.5909 42.0142 17.2386 42.3153 16.7841C42.6222 16.3295 42.7756 15.7955 42.7756 15.1818C42.7756 14.4148 42.5085 13.7642 41.9744 13.2301C41.4403 12.6903 40.5938 12.4205 39.4347 12.4205H35.446V18.2159Z" fill="#72B600"/>
<path d="M95.517 28V10.5455H102.403C103.722 10.5455 104.847 10.7812 105.778 11.2528C106.716 11.7187 107.429 12.3807 107.918 13.2386C108.412 14.0909 108.659 15.0937 108.659 16.2472C108.659 17.4062 108.409 18.4034 107.909 19.2386C107.409 20.0682 106.685 20.7045 105.736 21.1477C104.793 21.5909 103.651 21.8125 102.31 21.8125H97.6989V18.8466H101.713C102.418 18.8466 103.003 18.75 103.469 18.5568C103.935 18.3636 104.281 18.0739 104.509 17.6875C104.741 17.3011 104.858 16.821 104.858 16.2472C104.858 15.6676 104.741 15.179 104.509 14.7812C104.281 14.3835 103.932 14.0824 103.46 13.8778C102.994 13.6676 102.406 13.5625 101.696 13.5625H99.2074V28H95.517ZM104.943 20.0568L109.281 28H105.207L100.963 20.0568H104.943ZM111.267 28V10.5455H118.153C119.472 10.5455 120.597 10.7812 121.528 11.2528C122.466 11.7187 123.179 12.3807 123.668 13.2386C124.162 14.0909 124.409 15.0937 124.409 16.2472C124.409 17.4062 124.159 18.4034 123.659 19.2386C123.159 20.0682 122.435 20.7045 121.486 21.1477C120.543 21.5909 119.401 21.8125 118.06 21.8125H113.449V18.8466H117.463C118.168 18.8466 118.753 18.75 119.219 18.5568C119.685 18.3636 120.031 18.0739 120.259 17.6875C120.491 17.3011 120.608 16.821 120.608 16.2472C120.608 15.6676 120.491 15.179 120.259 14.7812C120.031 14.3835 119.682 14.0824 119.21 13.8778C118.744 13.6676 118.156 13.5625 117.446 13.5625H114.957V28H111.267ZM120.693 20.0568L125.031 28H120.957L116.713 20.0568H120.693ZM127.017 28V10.5455H133.903C135.222 10.5455 136.347 10.7812 137.278 11.2528C138.216 11.7187 138.929 12.3807 139.418 13.2386C139.912 14.0909 140.159 15.0937 140.159 16.2472C140.159 17.4062 139.909 18.4034 139.409 19.2386C138.909 20.0682 138.185 20.7045 137.236 21.1477C136.293 21.5909 135.151 21.8125 133.81 21.8125H129.199V18.8466H133.213C133.918 18.8466 134.503 18.75 134.969 18.5568C135.435 18.3636 135.781 18.0739 136.009 17.6875C136.241 17.3011 136.358 16.821 136.358 16.2472C136.358 15.6676 136.241 15.179 136.009 14.7812C135.781 14.3835 135.432 14.0824 134.96 13.8778C134.494 13.6676 133.906 13.5625 133.196 13.5625H130.707V28H127.017ZM136.443 20.0568L140.781 28H136.707L132.463 20.0568H136.443Z" fill="#51AF5B"/>
<defs>
<linearGradient id="paint0_linear_512_137" x1="58.867" y1="2.36511" x2="59.4773" y2="34.1311" gradientUnits="userSpaceOnUse">
<stop offset="0.2544" stop-color="#90D856"/>
<stop offset="0.736" stop-color="#00CC00"/>
</linearGradient>
<linearGradient id="paint1_linear_512_137" x1="94.9256" y1="28.222" x2="60.2458" y2="28.222" gradientUnits="userSpaceOnUse">
<stop stop-color="#00CC00"/>
<stop offset="0.1878" stop-color="#06C102"/>
<stop offset="0.5185" stop-color="#17A306"/>
<stop offset="0.9507" stop-color="#33740C"/>
<stop offset="1" stop-color="#366E0D"/>
</linearGradient>
<linearGradient id="paint2_linear_512_137" x1="57.5414" y1="12.2547" x2="56.1469" y2="34.408" gradientUnits="userSpaceOnUse">
<stop stop-color="#90D856"/>
<stop offset="1" stop-color="#00CC00"/>
</linearGradient>
<linearGradient id="paint3_linear_512_137" x1="91.9116" y1="29.9996" x2="57.669" y2="29.9996" gradientUnits="userSpaceOnUse">
<stop stop-color="#00CC00"/>
<stop offset="0.1878" stop-color="#06C102"/>
<stop offset="0.5185" stop-color="#17A306"/>
<stop offset="0.9507" stop-color="#33740C"/>
<stop offset="1" stop-color="#366E0D"/>
</linearGradient>
<linearGradient id="paint4_linear_512_137" x1="88.7876" y1="14.2859" x2="61.9017" y2="0.276993" gradientUnits="userSpaceOnUse">
<stop offset="0.2544" stop-color="#90D856"/>
<stop offset="0.736" stop-color="#00CC00"/>
</linearGradient>
<linearGradient id="paint5_linear_512_137" x1="49.6793" y1="34.5287" x2="68.6373" y2="3.61833" gradientUnits="userSpaceOnUse">
<stop stop-color="#00CC00"/>
<stop offset="0.1878" stop-color="#06C102"/>
<stop offset="0.5185" stop-color="#17A306"/>
<stop offset="0.9507" stop-color="#33740C"/>
<stop offset="1" stop-color="#366E0D"/>
</linearGradient>
<linearGradient id="paint6_linear_512_137" x1="81.3882" y1="8.1217" x2="63.315" y2="-3.0934" gradientUnits="userSpaceOnUse">
<stop stop-color="#90D856"/>
<stop offset="1" stop-color="#00CC00"/>
</linearGradient>
<linearGradient id="paint7_linear_512_137" x1="49.7374" y1="30.8678" x2="68.4564" y2="0.347031" gradientUnits="userSpaceOnUse">
<stop stop-color="#00CC00"/>
<stop offset="0.1878" stop-color="#06C102"/>
<stop offset="0.5185" stop-color="#17A306"/>
<stop offset="0.9507" stop-color="#33740C"/>
<stop offset="1" stop-color="#366E0D"/>
</linearGradient>
<linearGradient id="paint8_linear_512_137" x1="64.0937" y1="35.8496" x2="90.5207" y2="20.8795" gradientUnits="userSpaceOnUse">
<stop offset="0.2544" stop-color="#90D856"/>
<stop offset="0.736" stop-color="#00CC00"/>
</linearGradient>
<linearGradient id="paint9_linear_512_137" x1="68.4683" y1="-10.2417" x2="91.3699" y2="30.5608" gradientUnits="userSpaceOnUse">
<stop stop-color="#00CC00"/>
<stop offset="0.1878" stop-color="#06C102"/>
<stop offset="0.5185" stop-color="#17A306"/>
<stop offset="0.9507" stop-color="#33740C"/>
<stop offset="1" stop-color="#366E0D"/>
</linearGradient>
<linearGradient id="paint10_linear_512_137" x1="62.1569" y1="37.7976" x2="81.28" y2="28.7792" gradientUnits="userSpaceOnUse">
<stop stop-color="#90D856"/>
<stop offset="1" stop-color="#00CC00"/>
</linearGradient>
<radialGradient id="paint11_radial_512_137" cx="0" cy="0" r="1" gradientUnits="userSpaceOnUse" gradientTransform="translate(75.3941 2.23098) rotate(159.627) scale(7.63387 4.108)">
<stop stop-color="#FBE07A" stop-opacity="0.75"/>
<stop offset="0.0803394" stop-color="#FBE387" stop-opacity="0.6897"/>
<stop offset="0.5173" stop-color="#FDF2C7" stop-opacity="0.362"/>
<stop offset="0.8357" stop-color="#FFFBF0" stop-opacity="0.1233"/>
<stop offset="1" stop-color="white" stop-opacity="0"/>
</radialGradient>
<linearGradient id="paint12_linear_512_137" x1="68.0477" y1="-2.84918" x2="64.7432" y2="8.25183" gradientUnits="userSpaceOnUse">
<stop stop-color="#3C2200"/>
<stop offset="0.2217" stop-color="#3B2D02" stop-opacity="0.7783"/>
<stop offset="0.6109" stop-color="#394A07" stop-opacity="0.3891"/>
<stop offset="1" stop-color="#366E0D" stop-opacity="0"/>
</linearGradient>
<linearGradient id="paint13_linear_512_137" x1="55.2531" y1="30.012" x2="65.9402" y2="27.4388" gradientUnits="userSpaceOnUse">
<stop stop-color="#3C2200"/>
<stop offset="0.2217" stop-color="#3B2D02" stop-opacity="0.7783"/>
<stop offset="0.6109" stop-color="#394A07" stop-opacity="0.3891"/>
<stop offset="1" stop-color="#366E0D" stop-opacity="0"/>
</linearGradient>
<linearGradient id="paint14_linear_512_137" x1="87.7068" y1="38.4538" x2="77.8351" y2="24.6623" gradientUnits="userSpaceOnUse">
<stop stop-color="#3C2200"/>
<stop offset="0.2217" stop-color="#3B2D02" stop-opacity="0.7783"/>
<stop offset="0.6109" stop-color="#394A07" stop-opacity="0.3891"/>
<stop offset="1" stop-color="#366E0D" stop-opacity="0"/>
</linearGradient>
</defs>
</svg>
