<svg width="533" height="389" viewBox="0 0 533 389" fill="none" xmlns="http://www.w3.org/2000/svg">
<path d="M373.333 22.7627H108.969V182.82H373.333V22.7627Z" fill="#51AF5B"/>
<path d="M370.322 25.5425H111.616V179.8H370.322V25.5425Z" fill="#B3E55E"/>
<path opacity="0.29" d="M242.564 71.0054H203.409V116.121H242.564V71.0054Z" fill="#51AF5B"/>
<path d="M232.855 79.624L239.202 79.755L235.545 83.0703L232.855 82.3982V79.624Z" fill="#51AF5B"/>
<path opacity="0.29" d="M294.709 71.0054H255.554V116.121H294.709V71.0054Z" fill="#51AF5B"/>
<path opacity="0.29" d="M345.9 70.9199H306.745V116.035H345.9V70.9199Z" fill="#51AF5B"/>
<path d="M185.998 69.627H132.862V70.339H185.998V69.627Z" fill="#51AF5B"/>
<path d="M185.998 73.3066H132.862V74.0187H185.998V73.3066Z" fill="#51AF5B"/>
<path d="M185.998 77.2886H132.862V78.0006H185.998V77.2886Z" fill="#51AF5B"/>
<path d="M185.998 80.9683H132.862V81.6803H185.998V80.9683Z" fill="#51AF5B"/>
<path d="M185.998 84.2095H132.862V84.9215H185.998V84.2095Z" fill="#51AF5B"/>
<path d="M232.855 82.3982H209.701V111.381H232.855V82.3982Z" fill="#51AF5B"/>
<path d="M209.701 82.3982L208.771 78.5759H232.855V82.3982H209.701Z" fill="#B3E55E"/>
<path d="M232.855 111.381H235.545V83.0704L232.855 82.3982V111.381Z" fill="#0071F2"/>
<path d="M232.855 111.381H235.545V83.0704L232.855 82.3982V111.381Z" fill="#51AF5B"/>
<path opacity="0.3" d="M209.701 94.167V100.479L232.855 91.1991V85.4629L209.701 94.167Z" fill="white"/>
<path opacity="0.3" d="M209.701 105.167V102.296L232.855 92.9707V95.8474L209.701 105.167Z" fill="white"/>
<path opacity="0.3" d="M217.44 89.6789C219.913 88.9433 221.53 87.2302 221.051 85.8524C220.572 84.4747 218.18 83.9541 215.706 84.6896C213.233 85.4252 211.617 87.1384 212.095 88.5161C212.574 89.8938 214.967 90.4144 217.44 89.6789Z" fill="#51AF5B"/>
<path opacity="0.3" d="M216.571 106.796H211.123V110.134H216.571V106.796Z" fill="white"/>
<path opacity="0.3" d="M231.464 106.796H217.692V110.134H231.464V106.796Z" fill="white"/>
<path d="M282.581 90.3048V108.465C282.581 108.962 282.367 109.439 281.987 109.79C281.608 110.142 281.092 110.339 280.555 110.339H270.705C270.439 110.339 270.176 110.29 269.931 110.196C269.685 110.102 269.462 109.964 269.275 109.79C269.087 109.616 268.939 109.409 268.837 109.182C268.736 108.954 268.685 108.711 268.686 108.465V90.2364C268.685 89.7909 268.81 89.353 269.049 88.9661L271.08 85.6566C271.475 85.0302 271.688 84.3196 271.696 83.5945V77.2373H279.841V83.5033C279.837 84.1624 280.004 84.8128 280.327 85.4002L282.236 88.8693C282.47 89.3164 282.588 89.808 282.581 90.3048Z" fill="#51AF5B"/>
<path opacity="0.3" d="M282.581 97.7327V108.465C282.581 108.962 282.367 109.438 281.987 109.79C281.608 110.141 281.092 110.339 280.555 110.339H270.705C270.439 110.339 270.176 110.29 269.931 110.196C269.685 110.102 269.462 109.964 269.275 109.789C269.087 109.615 268.939 109.409 268.837 109.181C268.736 108.954 268.685 108.71 268.686 108.465V106.875C271.979 106.875 279.693 105.953 282.581 97.7327Z" fill="white"/>
<path d="M235.502 114.098H211.123V120.541H235.502V114.098Z" fill="#4CA255"/>
<path d="M287.647 114.098H263.268V120.541H287.647V114.098Z" fill="#4C9D55"/>
<path d="M338.844 114.007H314.465V120.45H338.844V114.007Z" fill="#4BA255"/>
<path d="M279.478 75.2378H271.77C271.11 75.2378 270.576 75.7326 270.576 76.3429V76.8954C270.576 77.5058 271.11 78.0005 271.77 78.0005H279.478C280.137 78.0005 280.672 77.5058 280.672 76.8954V76.3429C280.672 75.7326 280.137 75.2378 279.478 75.2378Z" fill="#41994A"/>
<path d="M339.521 87.8667H337.059V85.0186H315.573V87.8667H313.11C312.621 87.8667 312.151 88.0468 311.804 88.3673C311.458 88.6878 311.263 89.1224 311.263 89.5757V108.089C311.263 108.542 311.458 108.977 311.804 109.297C312.151 109.618 312.621 109.798 313.11 109.798H339.503C339.993 109.798 340.463 109.618 340.809 109.297C341.155 108.977 341.35 108.542 341.35 108.089V89.5757C341.35 89.1254 341.158 88.6933 340.816 88.3733C340.473 88.0533 340.008 87.8712 339.521 87.8667Z" fill="#51AF5B"/>
<path d="M338.512 82.9507H314.132V87.0578H338.512V82.9507Z" fill="#42974B"/>
<path opacity="0.3" d="M314.465 91.7856V104.574C314.465 105.48 314.854 106.35 315.547 106.991C316.239 107.632 317.179 107.992 318.159 107.992H335.04C335.533 107.992 336.021 107.901 336.475 107.724C336.929 107.547 337.341 107.287 337.685 106.961C338.029 106.634 338.299 106.247 338.479 105.823C338.659 105.398 338.746 104.945 338.734 104.489L338.444 90.9995C338.444 90.9995 331.29 94.0243 326.962 91.7686C326.962 91.7686 323.989 89.9343 321.065 91.9224C320.264 92.4749 319.334 92.8456 318.35 93.0047C317.644 93.1578 316.905 93.1247 316.219 92.9092C315.532 92.6938 314.924 92.3045 314.465 91.7856Z" fill="#A8F8B1"/>
<path opacity="0.3" d="M326.322 103.498C332.422 103.498 337.367 101.495 337.367 99.0259C337.367 96.5562 332.422 94.5542 326.322 94.5542C320.222 94.5542 315.277 96.5562 315.277 99.0259C315.277 101.495 320.222 103.498 326.322 103.498Z" fill="#B3E55E"/>
<path d="M416.305 368.1C416.305 368.1 417.924 375.101 414.291 375.408H365.292C364.311 375.412 363.342 375.204 362.462 374.8C361.583 374.396 360.818 373.808 360.228 373.082C359.638 372.356 359.239 371.513 359.063 370.619C358.888 369.726 358.94 368.806 359.216 367.935L359.265 367.787L416.305 368.1Z" fill="#E6E7E8"/>
<path d="M392.011 349.541C392.011 349.541 361.371 360.199 359.265 367.77C359.129 368.298 359.201 368.854 359.468 369.338C359.736 369.821 360.181 370.201 360.724 370.407C362.719 371.199 367.496 372.15 378.806 371.734H410.493C410.493 371.734 417.924 372.953 416.6 362.569L414.944 349.575L392.011 349.541Z" fill="#46924E"/>
<path d="M395.231 180.484V174.964L405.451 166.459L409.97 169.832L410.795 177.567L395.231 180.484Z" fill="#F7A48B"/>
<path d="M391.365 183.72C388.083 184.905 380.074 188.909 377.821 200.239L370.341 222.563L342.163 223.868V234.053H390.577L392.781 230.937L393.883 254.252L444.329 248.653C444.329 248.653 446.97 233.842 448.293 230.783C448.293 230.783 442.352 191.45 425.33 181.179C423.801 180.282 422.094 179.674 420.31 179.39C418.525 179.107 416.697 179.153 414.932 179.527C411.201 180.279 404.256 181.572 393.55 183.173C392.804 183.285 392.071 183.468 391.365 183.72Z" fill="#51AF5B"/>
<path opacity="0.2" d="M342.163 223.868V227.035C342.163 227.035 366.721 223.526 376.442 227.035C376.442 227.035 376.442 223.349 370.334 222.586L342.163 223.868Z" fill="black"/>
<path d="M294.401 358.872C294.401 358.872 291.046 370.589 303.02 372.275C303.922 372.391 304.831 372.445 305.741 372.435H315.979C317.962 372.44 319.935 372.185 321.84 371.677C327.11 370.253 335.698 366.608 328.188 358.957L294.401 358.872Z" fill="#2F2E41"/>
<path opacity="0.2" d="M294.401 358.872C294.401 358.872 291.046 370.589 303.02 372.275C303.922 372.391 304.831 372.445 305.741 372.435H315.979C317.962 372.44 319.935 372.185 321.84 371.677C327.11 370.253 335.698 366.608 328.188 358.957L294.401 358.872Z" fill="black"/>
<path d="M294.401 358.872C294.401 358.872 291.741 370.595 313.609 369.444C313.609 369.444 333.808 368.579 328.181 358.957L321.557 352.207L313.855 351.683L299.203 355.3C299.203 355.3 297.559 354.725 294.401 358.872Z" fill="#2F2E41"/>
<path d="M294.401 344.295V358.872C294.401 358.872 315.333 348.1 328.052 359.043C328.126 359.1 328.231 359.043 328.181 358.957C326.715 356.822 325.127 354.761 323.422 352.783C321.494 350.546 319.42 348.421 317.211 346.42L294.401 344.295Z" fill="#51AF5B"/>
<path d="M253.947 349.575L241.148 353.46C241.148 353.46 245.919 355.653 247.551 362.574H285.659V353.848C285.661 352.158 285.165 350.5 284.224 349.051L282.741 346.773L281.596 344.306L253.947 349.575Z" fill="#51AF5B"/>
<path d="M229.955 361.412C230.461 361.434 230.955 361.273 231.334 360.962C231.712 360.651 231.944 360.216 231.981 359.749L238.753 269.319L233.489 268.966L228.115 359.538C228.101 359.773 228.139 360.009 228.224 360.23C228.31 360.452 228.442 360.656 228.613 360.83C228.784 361.004 228.991 361.146 229.221 361.246C229.452 361.345 229.701 361.402 229.955 361.412Z" fill="#BCBEC0"/>
<path d="M343.492 364.215C342.987 364.239 342.491 364.077 342.112 363.766C341.734 363.455 341.502 363.019 341.467 362.552L334.695 272.122L339.959 271.774L345.333 362.347C345.346 362.581 345.308 362.816 345.222 363.037C345.136 363.258 345.004 363.461 344.833 363.635C344.662 363.808 344.455 363.949 344.225 364.049C343.995 364.148 343.746 364.205 343.492 364.215Z" fill="#BCBEC0"/>
<path d="M340.008 271.769H233.501V193.933C233.501 191.977 233.918 190.041 234.727 188.234C235.536 186.427 236.722 184.785 238.217 183.402C239.712 182.019 241.487 180.923 243.44 180.175C245.393 179.427 247.487 179.042 249.601 179.043H338.777L339.836 260.382L340.008 271.769Z" fill="#D1D3D4"/>
<path opacity="0.2" d="M339.835 260.382L334.67 261.601L248.48 239.345C239.245 230.852 253.005 179.043 253.005 179.043H338.764L339.835 260.382Z" fill="black"/>
<path d="M302.614 234.053H306.966L318.904 188.043V171.262C318.904 171.262 312.347 169.034 310.285 168.459L300.133 192.669L302.614 234.053Z" fill="#51AF5B"/>
<path d="M222.432 363.72C222.432 363.72 215.143 370.943 200.177 366.864C198.269 366.353 196.51 365.451 195.03 364.227C192.709 362.295 189.489 358.729 187.328 352.788L184.582 364.358L180.888 364.568L178.537 346.91C178.353 345.456 178.038 344.019 177.595 342.614C176.684 339.738 175.415 333.643 180.057 331.017L188.061 337.596C188.061 337.596 189.323 338.45 190.123 344.181C190.123 344.181 189.44 355.329 198.157 356.918C199.708 357.121 201.289 356.997 202.781 356.556C204.273 356.115 205.639 355.369 206.776 354.372C209.868 356.351 213.408 357.648 217.125 358.166C218.643 358.342 220.108 358.795 221.435 359.498C223.091 360.455 224.507 361.908 222.432 363.72Z" fill="#51AF5B"/>
<path d="M206.715 354.383C205.578 355.38 204.212 356.126 202.72 356.567C201.227 357.008 199.647 357.132 198.096 356.929C189.378 355.34 190.062 344.192 190.062 344.192C189.261 338.462 187.999 337.607 187.999 337.607L179.996 331.028C179.996 331.028 190.388 329.399 197.166 329.478C197.191 329.478 199.185 351.13 206.715 354.383Z" fill="#F9B499"/>
<path d="M198.01 335.334L197.191 329.473C191.435 329.618 185.697 330.137 180.021 331.028C180.021 331.028 192.974 333.062 198.01 335.334Z" fill="#F7A48B"/>
<path d="M143.864 334.377V340.843H141.598C141.598 340.843 137.849 366.727 124.44 355.522C124.44 355.522 130.363 345.389 129.784 335.044L143.864 334.377Z" fill="#F9B499"/>
<path d="M124.422 355.545C124.422 355.545 114.331 366.881 118.08 367.548C118.08 367.548 121.393 369.256 134.801 369.017C134.801 369.017 142.879 367.844 143.02 362.295L143.864 340.866H141.598C141.598 340.866 137.689 366.75 124.422 355.545Z" fill="#51AF5B"/>
<path d="M199.198 329.461C191.336 329.348 178.235 331.222 172.756 332.065C172.077 332.168 171.381 332.025 170.813 331.665C170.246 331.305 169.85 330.757 169.708 330.134L158.479 280.575C152.126 255.733 149.103 227.029 149.103 227.029L148.309 248.818L148.512 256.457L150.507 332.857C150.513 333.183 150.383 333.499 150.143 333.738C149.903 333.977 149.572 334.121 149.22 334.138L124.095 335.329C123.919 335.339 123.742 335.316 123.575 335.263C123.408 335.209 123.254 335.125 123.122 335.016C122.991 334.907 122.884 334.774 122.808 334.627C122.732 334.479 122.688 334.319 122.679 334.155C122.636 333.449 122.575 332.555 122.501 331.489C121.343 315.483 116.375 261.595 116.375 261.595C113.359 230.578 116.868 201.851 116.868 201.851L122.569 193.563H170.078L172.934 201.851L182.169 248.077L200.552 327.929C200.596 328.115 200.593 328.308 200.545 328.493C200.497 328.678 200.405 328.85 200.274 328.998C200.144 329.145 199.98 329.263 199.793 329.343C199.607 329.424 199.403 329.464 199.198 329.461Z" fill="#2F2E41"/>
<path opacity="0.2" d="M142.355 193.569L142.232 196.183C142.232 196.183 149.805 198.018 160.283 196.753V193.546L142.355 193.569Z" fill="black"/>
<path d="M132.443 131.267L129.15 131.877C129.15 131.877 143.753 147.491 143.445 171.655L142.374 193.569H160.314V169.251C160.314 169.251 163.072 145.514 154.964 131.267L151.935 130.629L132.443 131.267Z" fill="#D1D3D4"/>
<path d="M129.15 131.877C129.15 131.877 120.531 131.307 114.374 135.483L125.407 147.337L132.431 144.637L129.138 150.191C129.138 150.191 140.644 161.897 143.408 169.855C143.445 169.855 144.061 149.291 129.15 131.877Z" fill="#51AF5B"/>
<path opacity="0.2" d="M209.245 141.19C199.949 146.072 190.376 159.219 188.621 161.697C188.534 161.823 188.413 161.926 188.271 161.996C188.129 162.067 187.97 162.103 187.808 162.102C187.558 162.102 187.317 162.013 187.135 161.852C186.954 161.692 186.847 161.473 186.836 161.242C186.552 155.545 181.049 146.237 180.876 145.941C183.434 148.536 185.786 151.298 187.913 154.207C187.913 154.207 204.246 140.689 207.404 139.43L209.245 141.19Z" fill="black"/>
<path d="M209.245 141.19L216.633 133.893C216.633 133.893 220.499 130.606 223.971 130.242L231.975 129.422C232.13 129.406 232.287 129.42 232.435 129.464C232.584 129.508 232.721 129.58 232.837 129.677C232.953 129.773 233.046 129.891 233.11 130.022C233.173 130.154 233.206 130.297 233.206 130.441C233.207 130.67 233.125 130.892 232.973 131.073C232.821 131.254 232.608 131.382 232.369 131.438L224.365 133.312C224.365 133.312 228.312 139.732 226.575 143.964C226.575 143.964 223.103 148.71 222.882 145.428C222.882 145.428 219.188 149.006 217.273 148.846L209.245 141.19Z" fill="#F9B499"/>
<path d="M216.577 136.229C219.048 134.975 221.668 133.99 224.384 133.295L232.387 131.421C232.387 131.421 233.538 131.21 233.003 129.843C232.884 129.696 232.727 129.578 232.546 129.502C232.365 129.425 232.167 129.392 231.968 129.405C231.968 129.405 232.652 130.84 229.414 131.227C229.432 131.244 219.649 131.996 216.577 136.229Z" fill="#F7A48B"/>
<path d="M217.753 142.768C218.535 142.774 219.305 142.591 219.988 142.238C220.637 141.865 221.207 141.384 221.669 140.82C222.762 139.705 223.961 138.684 225.252 137.767C224.365 139.015 223.36 140.188 222.247 141.27C221.958 141.526 221.706 141.84 221.361 142.096C221.029 142.362 220.65 142.572 220.24 142.717C219.45 143.032 218.558 143.051 217.753 142.768Z" fill="#F7A48B"/>
<path d="M225.609 142.102C225.46 142.669 225.134 143.184 224.673 143.583C224.422 143.802 224.118 143.964 223.787 144.056C223.426 144.138 223.047 144.121 222.697 144.004C222.355 143.885 222.058 143.678 221.84 143.408C221.621 143.137 221.492 142.814 221.466 142.478C221.458 141.878 221.695 141.298 222.131 140.854C221.999 141.36 221.976 141.884 222.063 142.398C222.119 142.608 222.228 142.802 222.381 142.965C222.534 143.129 222.727 143.256 222.943 143.338C223.167 143.407 223.405 143.425 223.638 143.39C223.87 143.355 224.09 143.269 224.279 143.138C224.769 142.847 225.216 142.499 225.609 142.102Z" fill="#F7A48B"/>
<path d="M220.062 134.679C220.062 134.679 226.218 133.079 227.099 135.699C227.099 135.699 227.431 136.65 225.252 137.203C223.57 137.783 222.152 138.876 221.232 140.302" fill="#F9B499"/>
<path opacity="0.2" d="M142.355 193.569L143.445 169.849C143.445 169.849 155.622 166.784 160.32 170.606V193.569H142.355Z" fill="black"/>
<path opacity="0.2" d="M150.507 332.862C150.513 333.189 150.383 333.505 150.143 333.744C149.903 333.983 149.572 334.126 149.22 334.144L124.095 335.334C123.919 335.344 123.742 335.322 123.575 335.268C123.408 335.214 123.254 335.131 123.122 335.021C122.991 334.912 122.884 334.78 122.808 334.632C122.732 334.485 122.688 334.324 122.679 334.161C122.636 333.455 122.575 332.56 122.501 331.495C125.955 332.583 133.724 334.412 140.601 331.655C141.857 331.147 142.935 330.323 143.711 329.276C144.487 328.23 144.93 327.004 144.99 325.736L148.512 256.462L150.507 332.862Z" fill="black"/>
<path opacity="0.2" d="M199.198 329.461C191.336 329.347 178.235 331.222 172.756 332.065C172.077 332.168 171.381 332.024 170.813 331.665C170.246 331.305 169.85 330.757 169.708 330.134L158.479 280.575C152.126 255.733 149.103 227.029 149.103 227.029L173.113 314.081C173.748 316.445 175.104 318.591 177.022 320.26C178.939 321.93 181.335 323.054 183.924 323.497L200.546 327.935C200.588 328.12 200.585 328.311 200.537 328.495C200.489 328.679 200.397 328.85 200.267 328.997C200.138 329.143 199.975 329.261 199.79 329.342C199.604 329.422 199.402 329.463 199.198 329.461Z" fill="black"/>
<path opacity="0.4" d="M190.148 173.404C190.148 173.404 202.996 157.909 214.33 151.501C214.33 151.524 202.836 164.625 190.148 173.404Z" fill="white"/>
<path opacity="0.2" d="M166.981 184.511V187.331L173.944 188.26V185.218L166.981 184.511Z" fill="black"/>
<path d="M288.084 166.636C286.482 166.415 284.854 166.415 283.252 166.636L281.848 234.053H302.614L310.285 168.459C309.101 168.023 307.858 167.739 306.591 167.616L288.084 166.636Z" fill="#D1D3D4"/>
<path d="M260.547 230.926V234.053H281.848L282.008 226.232L260.547 230.926Z" fill="#3E8646"/>
<path d="M327.418 234.053H306.966L318.904 188.043V171.262C318.904 171.262 336.819 182.449 340.845 195.152C340.845 195.152 349.655 217.67 340.845 225.263L327.418 234.053Z" fill="#51AF5B"/>
<path d="M336.511 274.053C336.123 276.16 335.692 278.211 335.249 280.119C333.901 285.947 332.491 290.344 332.491 290.344L318.565 346.533L312.704 345.964L290.713 343.93L300.114 271.25L281.614 264.38C276.787 261.971 271.277 265.582 271.277 265.582C262.615 267.815 267.313 278.638 267.313 278.638L281.614 344.272L268.686 346.739L253.91 349.553L242.989 317.858L232.35 279.641L230.362 272.492C229.976 271.235 229.8 269.93 229.838 268.624C230.042 260.786 237.559 253.358 243.149 248.903C245.047 247.38 247.041 245.963 249.12 244.659H328.963L335.625 253.905L336.394 254.97C338.42 259.185 337.785 266.904 336.511 274.053Z" fill="#2F2E41"/>
<path opacity="0.2" d="M335.624 253.888C331.764 254.941 329.32 253.626 328.089 252.572C326.827 251.472 325.416 250.53 323.89 249.769C318.349 247.109 314.182 246.887 311.99 247.041C310.273 247.166 308.548 247.166 306.831 247.041C276.911 244.83 274.559 247.405 274.559 247.405C264.352 250.109 253.614 250.622 243.161 248.903C245.059 247.38 247.053 245.963 249.133 244.659H328.963L335.624 253.888Z" fill="black"/>
<path opacity="0.2" d="M290.713 343.953L300.114 271.273L281.614 264.403C276.787 261.993 271.277 265.605 271.277 265.605C262.615 267.838 267.313 278.661 267.313 278.661L281.614 344.295L268.686 346.761C268.686 346.761 266.543 295.944 263.403 280.296L260.528 270.458C260.528 270.458 263.927 256.371 277.563 257.71C277.563 257.71 290.953 257.488 301.346 262.837C301.346 262.837 311.251 262.62 308.352 278.94C308.352 278.94 298.163 336.086 312.661 345.969L290.713 343.953Z" fill="black"/>
<path opacity="0.2" d="M336.511 274.053C336.123 276.16 335.692 278.211 335.249 280.119C328.612 276.354 316.343 272.714 316.343 272.714C328.428 270.031 336.505 274.076 336.505 274.076L336.511 274.053Z" fill="black"/>
<path opacity="0.2" d="M254.44 269.29C248.051 274.285 240.485 277.825 232.35 279.624L230.362 272.475C229.976 271.217 229.8 269.913 229.838 268.607C238.001 269.5 246.233 269.728 254.44 269.29Z" fill="black"/>
<path d="M281.614 344.295L282.759 346.761C282.759 346.761 275.987 352.817 267.14 347.058L281.614 344.295Z" fill="#F9B499"/>
<path d="M241.148 353.46C241.148 353.46 227.647 357.174 232.572 364.437C232.572 364.437 233.852 367.473 251.367 366.63L284.403 366.778C285.29 365.536 285.735 364.068 285.677 362.58H247.551C247.551 362.58 246.627 356.838 241.148 353.46Z" fill="#2F2E41"/>
<path d="M324.808 165.326L365.988 167.331L332.756 223.315L294.826 219.14L324.808 165.326Z" fill="#75D67F"/>
<path d="M367.164 171.848L365.988 167.331L332.756 223.315L294.826 219.14L299.603 222.392L335.625 226.328L367.164 171.848Z" fill="#51AF5B"/>
<path opacity="0.41" d="M325.866 169.461L300.588 215.995L330.779 219.607L357.892 171.261L325.866 169.461Z" fill="white"/>
<path opacity="0.41" d="M319.938 193.677C319.938 193.677 320.597 190.72 323.897 191.535C326.439 192.162 332.626 193.472 335.341 194.041C335.502 194.075 335.652 194.142 335.781 194.236C335.911 194.33 336.016 194.449 336.089 194.586C336.162 194.722 336.201 194.872 336.204 195.024C336.207 195.176 336.173 195.327 336.105 195.466L328.852 210.373C328.852 210.373 327.436 212.652 319.938 210.897C319.938 210.897 312.236 209.684 314.594 204.682L319.938 193.677Z" fill="white"/>
<path d="M322.924 191.398C322.783 190.819 322.81 190.216 323.004 189.65C323.146 189.298 323.416 189.003 323.768 188.816C324.119 188.628 324.531 188.561 324.931 188.624C327.202 188.949 332.645 189.764 335.815 190.453C336.078 190.514 336.322 190.627 336.532 190.786C336.742 190.944 336.911 191.143 337.029 191.368C337.146 191.594 337.209 191.84 337.212 192.091C337.215 192.341 337.158 192.589 337.047 192.817C336.734 193.364 336.317 193.854 335.815 194.264L322.924 191.398Z" fill="#51AF5B"/>
<path d="M335.219 185.403C341.058 184.361 345.267 181.002 344.621 177.9C343.974 174.799 338.716 173.13 332.877 174.172C327.038 175.214 322.829 178.574 323.475 181.675C324.122 184.776 329.38 186.446 335.219 185.403Z" fill="#51AF5B"/>
<path d="M391.365 183.72C391.365 183.72 393.181 178.086 404.398 175.972C404.398 175.972 413.762 174.503 419.537 179.219C417.994 179.119 416.443 179.222 414.932 179.527C414.932 179.527 401.277 182.142 393.551 183.173C392.811 183.313 392.081 183.496 391.365 183.72Z" fill="#6BD976"/>
<path opacity="0.2" d="M398.513 214.873L392.781 230.937L393.883 254.252L444.329 248.653C444.329 248.653 446.447 235.585 448.294 230.783C447.369 224.559 445.928 218.409 443.984 212.389C443.984 212.389 446.157 228.26 444.23 236.314C443.96 237.393 443.381 238.386 442.555 239.187C441.729 239.989 440.685 240.57 439.533 240.871L404.817 250.168L398.513 214.873Z" fill="black"/>
<path d="M393.883 254.252C393.883 254.252 346.023 260.154 342.169 265.645C342.169 265.645 334.165 268.271 337.244 287.616L346.811 349.575L379.588 350.658L371.338 290.481L377.273 291.199L386.052 349.575H418.57L411.343 291.438C411.343 291.438 437.667 289.108 443.608 275.944C443.608 275.944 441.398 269.877 443.608 256.44L444.329 248.653L393.883 254.252Z" fill="#2F2E41"/>
<path opacity="0.2" d="M386.052 349.575L390.435 349.541L387.536 302.09C387.476 301.112 387.769 300.143 388.369 299.335C388.968 298.527 389.84 297.925 390.848 297.624C394.012 296.673 400.169 295.756 411.866 295.819L411.318 291.438L377.248 291.199L386.052 349.575Z" fill="black"/>
<path opacity="0.2" d="M363.778 350.133L379.6 350.658L371.338 290.481C371.338 290.481 367.552 289.046 364.929 290.481C364.929 290.481 372.631 330.857 363.778 350.133Z" fill="black"/>
<path d="M358.526 296.269C357.672 296.419 356.795 296.419 355.941 296.269C355.417 296.168 354.922 295.968 354.487 295.68C354.052 295.393 353.687 295.024 353.416 294.598C353.144 294.172 352.971 293.699 352.909 293.207C352.846 292.716 352.896 292.218 353.053 291.746C354.045 288.584 357.037 283.429 365.982 281.982L441.663 284.939C441.663 284.939 460.225 283.987 457.99 291.205C457.99 291.205 457.867 292.953 453.403 295.443C452.217 294.361 450.79 293.532 449.221 293.012C447.653 292.493 445.981 292.296 444.323 292.435L371.677 288.163C371.677 288.163 361.482 285.087 358.526 296.269Z" fill="#BCBEC0"/>
<path d="M443.608 275.944C443.608 275.944 444.323 287.77 460.742 295.238C461.472 295.57 462.312 295.634 463.091 295.417C463.87 295.199 464.531 294.715 464.94 294.064C465.157 293.717 465.296 293.333 465.348 292.935C465.399 292.537 465.364 292.133 465.242 291.748C465.121 291.363 464.916 291.005 464.641 290.695C464.366 290.385 464.026 290.13 463.641 289.946C458.759 287.559 449.777 281.401 449.359 268.032C449.359 268.032 451.095 225.235 465.402 208.334C465.402 208.334 470.906 201.954 478.823 201.498H481.772C482.801 201.498 483.787 201.12 484.515 200.447C485.242 199.774 485.651 198.861 485.651 197.909C485.65 197.405 485.534 196.906 485.311 196.445C485.088 195.985 484.762 195.573 484.356 195.237C483.949 194.901 483.471 194.647 482.951 194.493C482.432 194.339 481.883 194.288 481.341 194.343C479.955 194.475 478.579 194.688 477.223 194.981C472.17 196.098 467.464 198.276 463.469 201.347C459.474 204.419 456.297 208.3 454.185 212.691C451.444 218.489 449.458 224.568 448.269 230.8C448.269 230.8 443.682 245.366 443.584 256.434C443.608 256.44 441.287 271.193 443.608 275.944Z" fill="#D1D3D4"/>
<path d="M317.057 368.1C317.057 368.1 315.782 374.645 324.691 375.409H372.871C373.792 375.413 374.681 375.098 375.364 374.527C376.048 373.956 376.476 373.169 376.565 372.321C376.647 370.948 376.52 369.572 376.189 368.231L317.057 368.1Z" fill="#E6E7E8"/>
<path d="M132.443 131.267C132.443 131.267 137.898 129.108 138.107 121.937L140.311 120.661L149.903 127.832V130.629H151.916C151.916 130.629 153.911 136.645 148.37 139.43C148.37 139.43 142.485 138.171 132.443 131.267Z" fill="#F9B499"/>
<path d="M149.823 126.46L149.903 130.635C149.903 130.635 145.243 130.065 142.355 122.882L149.823 126.46Z" fill="#F7A48B"/>
<path d="M151.916 128.003C159.543 128.003 165.725 120.839 165.725 112.002C165.725 103.165 159.543 96.001 151.916 96.001C144.29 96.001 138.107 103.165 138.107 112.002C138.107 120.839 144.29 128.003 151.916 128.003Z" fill="#F9B499"/>
<path d="M165.725 109.371C165.725 109.371 164.771 111.917 156.491 106.141L150.833 102.028C150.833 102.028 144.646 112.617 140.428 113.421C140.019 112.99 139.516 112.643 138.953 112.403C138.39 112.163 137.779 112.034 137.159 112.025C134.98 112.025 133.127 113.62 132.462 115.842C132.462 115.842 132.013 116.212 131.471 114.378C131.594 115.169 133.133 126.477 123.067 128.049C123.067 128.049 119.54 128.619 119.946 124.756C119.946 124.756 116.585 127.32 113.5 126.118C113.163 125.997 112.861 125.806 112.616 125.56C112.372 125.313 112.191 125.019 112.089 124.698C111.987 124.377 111.965 124.039 112.027 123.71C112.088 123.38 112.229 123.068 112.441 122.797C112.797 122.382 113.228 122.027 113.716 121.749C113.716 121.749 117.914 119.271 115.341 112.065C115.341 112.065 109.862 94.0644 122.224 92.8169C122.224 92.8169 128.848 92.1903 132.462 93.8137L134.309 94.1897C134.309 94.1897 144.603 87.6844 155.986 92.6972C155.967 92.6346 172.91 98.5474 165.725 109.371Z" fill="#2F2E41"/>
<path opacity="0.2" d="M123.043 127.998C123.043 127.998 119.515 128.601 119.921 124.705C119.921 124.705 116.56 127.274 113.476 126.066C113.143 125.94 112.844 125.747 112.601 125.502C112.357 125.257 112.174 124.965 112.066 124.648C112.316 124.578 112.563 124.497 112.804 124.403C115.926 123.25 118.544 121.169 120.246 118.488C121.948 115.806 122.638 112.677 122.205 109.593C121.528 104.58 121.947 95.4086 129.962 96.001C129.962 96.001 129.852 109.416 131.446 114.383C131.612 115.5 132.979 126.46 123.043 127.998Z" fill="black"/>
<path d="M130.092 104.409C130.092 104.409 127.475 93.1301 132.443 92.3725C132.443 92.3725 134.432 91.9965 134.29 94.127C131.603 96.9774 130.113 100.627 130.092 104.409Z" fill="#51AF5B"/>
<path d="M142.103 117.625C142.103 120.735 139.887 123.258 137.141 123.258C134.395 123.258 132.173 120.735 132.173 117.625C132.17 117.014 132.262 116.406 132.444 115.819C133.108 113.597 134.962 112.002 137.141 112.002C137.761 112.011 138.372 112.14 138.935 112.38C139.498 112.62 140 112.967 140.41 113.398C141.528 114.56 142.133 116.069 142.103 117.625Z" fill="#F9B499"/>
<path d="M90.7691 169.691L90.769 169.691L90.769 169.691L90.7549 169.65L90.7341 169.613C88.9599 166.404 89.9401 162.636 91.4743 159.561C92.2339 158.038 93.1118 156.722 93.8012 155.785C94.1455 155.317 94.4416 154.946 94.6508 154.692C94.7554 154.565 94.8382 154.468 94.8943 154.403C94.9224 154.37 94.9438 154.346 94.9579 154.33L94.9735 154.312L94.9771 154.308L94.9777 154.308L94.9778 154.307L94.9778 154.307L94.9917 154.292L95.0043 154.275C103.337 143.3 110.478 138.347 113.331 136.653L113.331 136.653L113.336 136.65C113.631 136.47 113.885 136.333 114.09 136.225C114.118 136.21 114.145 136.196 114.173 136.181C114.218 136.158 114.263 136.134 114.307 136.111L125.071 147.683L125.302 147.93L125.617 147.809L131.299 145.625L128.744 149.942L128.551 150.268L128.813 150.542C139.83 162.046 142.568 168.941 142.942 169.916L142.816 172.749L142.816 172.749L141.911 192.884L141.911 192.885L141.503 201.357H117.386C117.573 197.647 118.889 193.497 120.204 190.196C120.89 188.475 121.57 186.998 122.079 185.951C122.333 185.428 122.545 185.013 122.692 184.729C122.766 184.587 122.823 184.478 122.862 184.405L122.907 184.322L122.918 184.302L122.92 184.297L122.921 184.296L122.921 184.296L122.921 184.296L122.927 184.285C125.505 179.28 124.364 173.073 122.658 168.217C121.799 165.773 120.785 163.636 119.986 162.111C119.586 161.348 119.24 160.737 118.993 160.315C118.869 160.104 118.77 159.941 118.702 159.83C118.668 159.774 118.641 159.731 118.623 159.702L118.602 159.669L118.597 159.66L118.595 159.658L118.595 159.657C118.594 159.657 118.594 159.657 118.173 159.926L118.594 159.657L118.286 159.174L117.849 159.545L107.777 168.089L107.417 168.395L107.702 168.772L118.124 182.584C118.124 182.584 118.124 182.584 118.124 182.584C118.391 182.941 118.547 183.355 118.58 183.78C118.612 184.206 118.521 184.634 118.312 185.019C115.564 190.088 110.263 191.549 107.686 191.958C107.297 192.017 106.9 191.997 106.521 191.9L106.397 192.384L106.521 191.9C106.142 191.803 105.793 191.631 105.498 191.398L105.495 191.396C100.586 187.594 96.903 182.178 94.4412 177.686C93.2125 175.444 92.2931 173.442 91.6812 172.001C91.3753 171.28 91.1465 170.701 90.9945 170.302C90.9186 170.103 90.8618 169.949 90.8242 169.846C90.8054 169.794 90.7914 169.755 90.7822 169.729L90.772 169.7L90.7696 169.693L90.7691 169.691Z" fill="#51AF5B" stroke="#3F8647"/>
<path opacity="0.2" d="M108.119 168.476L103.133 165.246C103.133 165.246 110.373 166.072 118.191 159.926L108.119 168.476Z" fill="black"/>
<path d="M111.869 191.284C112.874 192.834 114.475 193.976 116.351 194.48C116.351 194.48 117.582 195.511 116.221 195.802C115.607 195.922 115.011 196.114 114.448 196.371C113.1 197.015 111.893 198.109 117.169 198.764C118.056 194.368 119.503 190.085 121.479 186.004H118.284C116.799 188.345 114.554 190.192 111.869 191.284Z" fill="#F9B499"/>
<path opacity="0.2" d="M125.216 183.731L123.357 187.331L135.528 186.021L137.141 183.104L125.216 183.731Z" fill="black"/>
<path d="M288.522 156.081L288.084 163.127C288.084 163.127 286.17 174.138 296.088 174.11C296.088 174.11 301.549 174.873 306.665 168.767L305.513 158.513C305.513 158.513 306.831 158.513 307.822 156.833L301.382 152.845L288.522 156.081Z" fill="#F9B499"/>
<path d="M288.374 158.53L288.085 163.144C287.951 164.305 287.951 165.476 288.085 166.636C288.085 166.636 293.01 165.343 297.116 160.456L291.631 157.402L288.374 158.53Z" fill="#F7A48B"/>
<path d="M308.235 150.444C311.932 142.402 309.501 133.746 302.805 131.111C296.109 128.476 287.684 132.86 283.988 140.902C280.291 148.945 282.722 157.601 289.418 160.236C296.114 162.87 304.539 158.487 308.235 150.444Z" fill="#F9B499"/>
<path d="M311.792 156.219C313 154.284 312.539 151.947 310.763 150.999C308.987 150.05 306.57 150.849 305.363 152.784C304.156 154.718 304.616 157.055 306.392 158.004C308.168 158.952 310.585 158.153 311.792 156.219Z" fill="#F9B499"/>
<path d="M317.057 147.724C315.728 149.631 314.136 151.37 312.322 152.897C312.322 152.897 310.98 149.65 306.985 151.188C306.985 151.188 308.77 144.859 303.703 143.11C303.703 143.11 301.241 143.11 300.625 140.302C300.625 140.302 294.259 145.77 291.575 140.034C291.575 140.034 285.043 142.159 282.87 138.621C282.254 137.63 281.99 136.2 282.31 134.144C282.31 134.144 282.168 123.97 299.96 126.38C299.96 126.38 305.316 125.708 310.235 132.407C310.205 132.435 324.069 137.192 317.057 147.724Z" fill="#2F2E41"/>
<path opacity="0.2" d="M317.057 147.724C315.728 149.631 314.136 151.37 312.322 152.897C312.322 152.897 310.98 149.65 306.985 151.188C306.985 151.188 308.77 144.859 303.703 143.11C303.703 143.11 301.241 143.11 300.625 140.302C300.625 140.302 294.259 145.77 291.575 140.034C291.575 140.034 285.043 142.159 282.87 138.621C282.87 138.621 288.676 128.658 298.951 131.603C298.951 131.603 297.652 127.855 301.844 129.194C301.844 129.194 311.282 132.669 307.003 136.952C307.003 136.952 303.143 140.439 305.895 142.045C305.895 142.045 309.207 145.258 310.297 143.247C310.297 143.247 308.936 137.089 312.987 140.034C315.354 142.024 316.809 144.775 317.057 147.724Z" fill="black"/>
<path d="M300.114 224.665L265.293 232.64C251.244 235.09 252.02 228.299 252.02 228.299C248.117 197.089 258.269 179.755 258.269 179.755C259.9 172.475 266.131 169.194 271.967 167.747C275.629 166.86 279.414 166.484 283.196 166.63H283.258L282.377 208.487L296.125 206.887L300.114 224.665Z" fill="#51AF5B"/>
<path opacity="0.2" d="M283.196 166.631L282.377 208.488L277.317 209.502L275.193 189.843L278.708 186.522L274.017 184.061L271.948 167.719C275.618 166.84 279.409 166.473 283.196 166.631Z" fill="black"/>
<path opacity="0.2" d="M268.729 190.709L269.344 210.789C269.344 210.789 284.12 207.901 296.088 206.887L296.808 210.071C296.808 210.071 273.869 210.356 267.313 212.811L268.729 190.709Z" fill="black"/>
<path d="M296.383 208.117C296.383 208.117 303.771 200.626 311.941 197.015C312.985 196.553 313.993 196.024 314.957 195.431C316.349 194.565 318.448 193.569 319.033 194.941C319.033 194.941 320.787 196.434 312.088 201.777C312.088 201.777 316.65 203.412 314.366 211.461C314.366 211.461 314.754 217.323 311.904 214.987C311.904 214.987 311.214 212.389 309.3 213.99C308.894 214.347 308.56 214.767 308.314 215.232C307.471 216.747 304.454 221.458 299.4 221.595L296.383 208.117Z" fill="#F9B499"/>
<path d="M308.579 207.918C309.203 207.81 309.844 207.821 310.463 207.952C311.093 208.071 311.697 208.289 312.249 208.596C312.807 208.904 313.29 209.317 313.665 209.809C314.041 210.29 314.282 210.85 314.366 211.438C314.016 210.988 313.629 210.563 313.209 210.168C312.796 209.799 312.34 209.474 311.848 209.2C310.818 208.653 309.72 208.223 308.579 207.918Z" fill="#F7A48B"/>
<path d="M310.943 204.369C311.376 204.22 311.843 204.181 312.298 204.255C312.759 204.323 313.199 204.48 313.591 204.717C313.997 204.949 314.34 205.265 314.594 205.639C314.842 205.997 314.99 206.406 315.025 206.83C314.693 206.534 314.409 206.26 314.126 205.987C313.843 205.736 313.533 205.511 313.203 205.315C312.498 204.909 311.738 204.591 310.943 204.369Z" fill="#F7A48B"/>
<path d="M353.38 206.619C353.38 206.619 351.834 215.278 345.013 218.815C344.498 219.091 343.896 219.195 343.308 219.111C341.036 218.764 335.92 216.747 341.633 205.241C340.568 204.498 339.614 203.628 338.795 202.654C337.982 201.566 337.853 200.495 340.149 200.262C340.149 200.262 334.88 194.252 343.523 198.126C343.523 198.126 338.69 191.752 341.171 192.378C341.576 192.399 341.971 192.503 342.329 192.68C344.094 193.484 345.721 194.527 347.155 195.773C347.155 195.802 347.248 195.773 347.217 195.728C346.386 194.64 343.523 190.675 345.265 189.707C345.432 189.616 345.626 189.578 345.817 189.598C346.009 189.617 346.189 189.693 346.331 189.815L353.38 195.619C353.38 195.619 356.864 198.872 353.38 206.619Z" fill="#F9B499"/>
<path d="M344.995 218.815C344.479 219.091 343.878 219.195 343.289 219.111C341.018 218.764 335.902 216.747 341.615 205.24C340.55 204.498 339.595 203.628 338.777 202.654L343.702 205.098C343.702 205.098 339.614 215.893 344.995 218.815Z" fill="#F7A48B"/>
<path d="M347.223 195.728C346.392 194.64 343.529 190.675 345.272 189.707C345.438 189.616 345.632 189.578 345.824 189.598C346.015 189.617 346.195 189.693 346.337 189.815C346.337 189.815 345.413 191.712 347.223 195.728Z" fill="#F7A48B"/>
<path d="M347.888 200.262C346.041 200.683 343.505 198.126 343.505 198.126C343.505 198.126 338.672 191.751 341.153 192.378C341.558 192.399 341.953 192.502 342.31 192.68C342.224 194.389 345.696 197.397 345.696 197.397C349.224 199.943 347.888 200.262 347.888 200.262Z" fill="#F7A48B"/>
<path d="M408.142 161.237C410.21 151.382 405.915 142.32 398.549 140.997C391.182 139.673 383.534 146.589 381.465 156.444C379.397 166.299 383.692 175.361 391.058 176.684C398.425 178.008 406.073 171.092 408.142 161.237Z" fill="#F9B499"/>
<path d="M420.035 159.499C419.103 162.561 417.565 165.437 415.498 167.981C413.891 169.971 411.834 171.614 409.471 172.794C409.471 172.794 407.624 171.9 408.412 169.473L406.565 160.854C406.565 160.854 399.645 166.961 399.559 161.538C399.559 161.538 399.744 155.272 394.856 156.69C394.856 156.69 386.064 161.846 382.253 153.762C382.253 153.762 380.807 158.223 381.022 161.299C381.012 161.295 381.001 161.295 380.991 161.299C380.102 160.818 379.276 160.245 378.529 159.59C378.444 159.518 378.364 159.442 378.289 159.362C377.491 158.628 376.863 157.752 376.442 156.787C375.352 154.167 376.245 150.572 383.792 146.534C383.792 146.534 379.625 146.038 382.106 143.498C382.106 143.498 398.796 129.781 406.159 142.182C406.091 142.147 424.911 146.255 420.035 159.499Z" fill="#2F2E41"/>
<path opacity="0.2" d="M413.097 156.275C414.336 157.968 415.188 159.878 415.598 161.887C416.009 163.897 415.971 165.963 415.486 167.958C413.879 169.949 411.822 171.591 409.459 172.771C409.459 172.771 407.612 171.877 408.4 169.45L406.553 160.832C406.553 160.832 399.633 166.938 399.547 161.515C399.547 161.515 399.732 155.249 394.843 156.668C394.843 156.668 386.052 161.823 382.241 153.74C382.241 153.74 380.794 158.2 381.01 161.276C381 161.272 380.989 161.272 380.979 161.276C380.053 160.85 379.218 160.271 378.516 159.567C378.432 159.495 378.352 159.419 378.276 159.339C377.531 158.567 376.909 157.7 376.429 156.764C376.429 156.764 376.947 150.857 391.42 147.901C391.42 147.901 393.046 147.331 391.42 145.269C391.42 145.269 387.948 140.758 398.469 144.044C398.469 144.044 398.783 141.623 396.746 140.86C396.746 140.86 402.336 141.327 402.865 145.269C402.865 145.269 416.539 145.52 417.068 154.144C417.013 154.138 418.256 155.864 413.097 156.275Z" fill="black"/>
<path d="M408.406 169.462C410.759 169.462 412.666 167.429 412.666 164.922C412.666 162.414 410.759 160.382 408.406 160.382C406.053 160.382 404.146 162.414 404.146 164.922C404.146 167.429 406.053 169.462 408.406 169.462Z" fill="#F9B499"/>
<path d="M351.169 349.718C351.169 349.718 308.001 366.095 318.725 369.513C318.725 369.513 324.229 372.555 347.66 371.535L370.439 371.734C371.75 371.764 373.043 371.456 374.176 370.846C374.715 370.598 375.179 370.229 375.523 369.772C375.867 369.315 376.082 368.785 376.146 368.231L374.989 350.515L351.169 349.718Z" fill="#51AF5B"/>
<path d="M351.348 377.67C351.596 377.728 351.854 377.737 352.106 377.694C352.357 377.652 352.596 377.56 352.805 377.424C353.015 377.288 353.19 377.112 353.319 376.908C353.448 376.703 353.527 376.476 353.552 376.24L362.3 295.978C362.3 295.978 362.633 290.811 368.241 291.182L445.375 295.67C445.375 295.67 451.532 294.451 453.958 303.412L475.628 376.269C475.779 376.772 476.134 377.203 476.619 377.47C477.104 377.737 477.682 377.821 478.232 377.704C478.522 377.641 478.794 377.525 479.033 377.362C479.272 377.199 479.473 376.993 479.623 376.755C479.774 376.518 479.87 376.256 479.907 375.983C479.944 375.71 479.921 375.433 479.839 375.169L456.808 300.985C456.808 300.985 454.961 292.224 444.317 292.441L371.671 288.168C371.671 288.168 359.093 284.904 357.991 299.669L349.988 375.944C349.955 376.334 350.075 376.722 350.324 377.039C350.574 377.355 350.937 377.579 351.348 377.67Z" fill="#D1D3D4"/>
<path d="M440.616 234.053H121.491V244.642H440.616V234.053Z" fill="#939598"/>
<path d="M442.149 373.853L417.542 244.637H429.849L446.096 373.853H442.149Z" fill="#A7A9AC"/>
<path d="M123.812 373.853L148.419 244.637H136.119L119.866 373.853H123.812Z" fill="#A7A9AC"/>
<path d="M218.732 150.248C218.732 150.248 191.835 182.409 183.77 178.297L172.891 170.447C172.891 170.447 173.864 192.407 175.286 201.88H160.258L160.295 193.591V169.251C160.295 169.251 163.146 146.283 154.939 131.267C154.939 131.267 161.305 130.891 163.872 132.481C170.144 136.261 175.858 140.78 180.87 145.924C183.428 148.519 185.78 151.281 187.907 154.19C187.907 154.19 204.24 140.672 207.398 139.413L209.245 141.179L218.732 150.248Z" fill="#51AF5B"/>
<path d="M154.945 131.267C154.945 131.267 160.486 130.977 163.866 132.481L167.437 142.535H161.754L168.071 148.539C168.071 148.539 166.612 162.78 160.283 169.251C160.295 169.251 163.22 145.964 154.945 131.267Z" fill="#51AF5B"/>
<path opacity="0.4" d="M160.295 169.251C160.295 169.251 168.859 163.435 170.675 146.944L168.071 143.737L171.328 142.973L166.286 133.985L163.854 132.481L167.424 142.535H161.742L168.071 148.539C168.071 148.539 166.095 164.227 160.295 169.251Z" fill="white"/>
</svg>
