<svg width="30" height="30" viewBox="0 0 30 30" fill="none" xmlns="http://www.w3.org/2000/svg">
<path d="M26.1486 13.3163C25.7555 13.1039 22.3852 11.1483 21.1205 10.4122L21.1168 10.4097L5.79824 1.56578C5.53726 1.40647 5.24463 1.30611 4.94082 1.27171C4.637 1.23732 4.32934 1.26972 4.03935 1.36666C4.00663 1.37841 3.97588 1.39023 3.94406 1.40479C3.8702 1.42887 3.798 1.45777 3.72793 1.49132C3.43503 1.66639 3.19474 1.91716 3.03234 2.21727C2.86994 2.51737 2.79143 2.85569 2.80508 3.19664V26.9283C2.79578 27.246 2.87101 27.5604 3.02307 27.8394C3.17514 28.1185 3.39858 28.3521 3.67055 28.5165C3.73328 28.5471 3.79791 28.5737 3.86404 28.5961C3.9002 28.6128 3.93468 28.6274 3.97199 28.6405C4.151 28.7054 4.33953 28.7402 4.52993 28.7435C4.89554 28.7396 5.25373 28.6398 5.56875 28.4542C6.05459 28.1722 21.1168 19.4759 21.1168 19.4759L26.1425 16.5743C26.4532 16.4187 26.7155 16.1811 26.9009 15.8872C27.0864 15.5933 27.188 15.2543 27.1947 14.9068C27.1794 14.5721 27.0742 14.2478 26.8901 13.9679C26.706 13.688 26.4498 13.4629 26.1486 13.3163ZM5.30508 24.7988V5.12733L15.2302 14.9512L5.30508 24.7988ZM11.5776 22.0967L17.007 16.7097L18.4439 18.132C16.8631 19.0448 14.1923 20.587 11.5776 22.0967V22.0967ZM17.0048 13.1904L11.5075 7.74917L18.4496 11.757L17.0048 13.1904ZM20.6883 16.8363L18.7816 14.949L20.6912 13.0543C21.5916 13.5771 22.9948 14.3909 23.9611 14.9471L20.6883 16.8363Z" fill="black"/>
</svg>
