<svg width="31" height="31" viewBox="0 0 31 31" fill="none" xmlns="http://www.w3.org/2000/svg">
<path d="M8.67458 18.4579L6.99542 16.7917H21.9658C22.3084 16.7917 22.6369 16.6556 22.8792 16.4133C23.1214 16.1711 23.2575 15.8426 23.2575 15.5C23.2575 15.1574 23.1214 14.8289 22.8792 14.5867C22.6369 14.3444 22.3084 14.2083 21.9658 14.2083L6.99542 14.2083L8.67458 12.5421C8.79565 12.422 8.89174 12.2791 8.95732 12.1217C9.02289 11.9643 9.05666 11.7955 9.05666 11.625C9.05666 11.4545 9.02289 11.2857 8.95732 11.1283C8.89174 10.9709 8.79565 10.828 8.67458 10.7079C8.55451 10.5869 8.41165 10.4908 8.25424 10.4252C8.09684 10.3596 7.92801 10.3258 7.7575 10.3258C7.58698 10.3258 7.41816 10.3596 7.26075 10.4252C7.10335 10.4908 6.96049 10.5869 6.84042 10.7079L2.96542 14.5829C2.84435 14.703 2.74826 14.8459 2.68268 15.0033C2.61711 15.1607 2.58334 15.3295 2.58334 15.5C2.58334 15.6705 2.61711 15.8393 2.68268 15.9967C2.74826 16.1541 2.84435 16.297 2.96542 16.4171L6.84042 20.2921C7.08364 20.5353 7.41353 20.672 7.7575 20.672C8.10147 20.672 8.43136 20.5353 8.67458 20.2921C8.91781 20.0489 9.05445 19.719 9.05445 19.375C9.05445 19.031 8.91781 18.7011 8.67458 18.4579V18.4579ZM11.6325 7.75V10.3333C11.6325 10.6759 11.7686 11.0044 12.0108 11.2467C12.2531 11.4889 12.5816 11.625 12.9242 11.625C13.2667 11.625 13.5953 11.4889 13.8375 11.2467C14.0797 11.0044 14.2158 10.6759 14.2158 10.3333V7.75C14.2158 7.40743 14.3519 7.07889 14.5942 6.83665C14.8364 6.59442 15.1649 6.45833 15.5075 6.45833L24.5492 6.45833C24.8917 6.45833 25.2203 6.59442 25.4625 6.83665C25.7047 7.07889 25.8408 7.40743 25.8408 7.75L25.8408 23.25C25.8408 23.5926 25.7047 23.9211 25.4625 24.1633C25.2203 24.4056 24.8917 24.5417 24.5492 24.5417L15.5075 24.5417C15.1649 24.5417 14.8364 24.4056 14.5942 24.1633C14.3519 23.9211 14.2158 23.5926 14.2158 23.25V20.6667C14.2158 20.3241 14.0797 19.9956 13.8375 19.7533C13.5953 19.5111 13.2667 19.375 12.9242 19.375C12.5816 19.375 12.2531 19.5111 12.0108 19.7533C11.7686 19.9956 11.6325 20.3241 11.6325 20.6667V23.25C11.6325 24.2777 12.0408 25.2633 12.7675 25.99C13.4942 26.7167 14.4798 27.125 15.5075 27.125L24.5492 27.125C25.5769 27.125 26.5625 26.7167 27.2892 25.99C28.0159 25.2633 28.4242 24.2777 28.4242 23.25L28.4242 7.75C28.4242 6.72229 28.0159 5.73666 27.2892 5.00996C26.5625 4.28326 25.5769 3.875 24.5492 3.875L15.5075 3.875C14.4798 3.875 13.4942 4.28326 12.7675 5.00996C12.0408 5.73666 11.6325 6.72229 11.6325 7.75Z" fill="#51AF5B"/>
</svg>
