<svg width="122" height="122" viewBox="0 0 122 122" fill="none" xmlns="http://www.w3.org/2000/svg">
<g filter="url(#filter0_d_464_433)">
<g filter="url(#filter1_d_464_433)">
<circle cx="61" cy="57" r="57" fill="#E8F0CB"/>
<circle cx="61" cy="57" r="55" stroke="#E8F0CB" stroke-width="4"/>
</g>
<g clip-path="url(#clip0_464_433)">
<path d="M60.6808 52.5883C69.5829 52.5883 76.7994 45.2463 76.7994 36.1896C76.7994 27.1328 69.5829 19.7909 60.6808 19.7909C51.7788 19.7909 44.5623 27.1328 44.5623 36.1896C44.5623 45.2463 51.7788 52.5883 60.6808 52.5883Z" fill="#51AF5B"/>
<path d="M60.6809 56.7456C74.8929 56.7456 86.3343 63.0293 86.3343 70.8345V84.9234H35.0274V70.8345C35.0274 63.0293 46.4689 56.7456 60.6809 56.7456Z" fill="#51AF5B"/>
</g>
<circle cx="61.5" cy="57.5" r="50.5" fill="#D9D9D9" fill-opacity="0.06" stroke="#51AF5B" stroke-width="4"/>
</g>
<defs>
<filter id="filter0_d_464_433" x="0" y="0" width="122" height="122" filterUnits="userSpaceOnUse" color-interpolation-filters="sRGB">
<feFlood flood-opacity="0" result="BackgroundImageFix"/>
<feColorMatrix in="SourceAlpha" type="matrix" values="0 0 0 0 0 0 0 0 0 0 0 0 0 0 0 0 0 0 127 0" result="hardAlpha"/>
<feOffset dy="4"/>
<feGaussianBlur stdDeviation="2"/>
<feComposite in2="hardAlpha" operator="out"/>
<feColorMatrix type="matrix" values="0 0 0 0 0 0 0 0 0 0 0 0 0 0 0 0 0 0 0.25 0"/>
<feBlend mode="normal" in2="BackgroundImageFix" result="effect1_dropShadow_464_433"/>
<feBlend mode="normal" in="SourceGraphic" in2="effect1_dropShadow_464_433" result="shape"/>
</filter>
<filter id="filter1_d_464_433" x="0" y="0" width="122" height="122" filterUnits="userSpaceOnUse" color-interpolation-filters="sRGB">
<feFlood flood-opacity="0" result="BackgroundImageFix"/>
<feColorMatrix in="SourceAlpha" type="matrix" values="0 0 0 0 0 0 0 0 0 0 0 0 0 0 0 0 0 0 127 0" result="hardAlpha"/>
<feOffset dy="4"/>
<feGaussianBlur stdDeviation="2"/>
<feComposite in2="hardAlpha" operator="out"/>
<feColorMatrix type="matrix" values="0 0 0 0 0 0 0 0 0 0 0 0 0 0 0 0 0 0 0.25 0"/>
<feBlend mode="normal" in2="BackgroundImageFix" result="effect1_dropShadow_464_433"/>
<feBlend mode="normal" in="SourceGraphic" in2="effect1_dropShadow_464_433" result="shape"/>
</filter>
<clipPath id="clip0_464_433">
<rect width="51.625" height="65.625" fill="white" transform="translate(35 19.5)"/>
</clipPath>
</defs>
</svg>
