<svg width="22" height="26" viewBox="0 0 22 26" fill="none" xmlns="http://www.w3.org/2000/svg">
<path d="M11 14.3C10.5813 14.2953 10.1713 14.4121 9.82493 14.6345C9.4787 14.8569 9.21264 15.1743 9.0629 15.5438C8.91316 15.9134 8.88676 16.3176 8.98714 16.7019C9.08765 17.086 9.31026 17.432 9.625 17.693V19.5C9.625 19.8448 9.76993 20.1755 10.0277 20.4192C10.2856 20.663 10.6354 20.8 11 20.8C11.3646 20.8 11.7144 20.663 11.9723 20.4192C12.2301 20.1755 12.375 19.8448 12.375 19.5V17.693C12.6897 17.432 12.9123 17.086 13.0129 16.7019C13.1132 16.3176 13.0868 15.9134 12.9371 15.5438C12.7874 15.1743 12.5213 14.8569 12.1751 14.6345C11.8287 14.4121 11.4187 14.2953 11 14.3ZM17.875 9.1V6.5C17.875 4.7761 17.1506 3.12279 15.8613 1.90381C14.5721 0.684814 12.8234 0 11 0C9.17661 0 7.42796 0.684814 6.13865 1.90381C4.84932 3.12279 4.125 4.7761 4.125 6.5V9.1C3.03098 9.1 1.98177 9.51089 1.20819 10.2423C0.434597 10.9737 0 11.9657 0 13V22.1C0 23.1343 0.434597 24.1263 1.20819 24.8577C1.98177 25.5891 3.03098 26 4.125 26H17.875C18.9689 26 20.0182 25.5891 20.7918 24.8577C21.5654 24.1263 22 23.1343 22 22.1V13C22 11.9657 21.5654 10.9737 20.7918 10.2423C20.0182 9.51089 18.9689 9.1 17.875 9.1ZM6.875 6.5C6.875 5.46565 7.3096 4.47368 8.08319 3.74228C8.85679 3.01089 9.90605 2.6 11 2.6C12.0939 2.6 13.1432 3.01089 13.9168 3.74228C14.6904 4.47368 15.125 5.46565 15.125 6.5V9.1H6.875V6.5ZM19.25 22.1C19.25 22.4448 19.1051 22.7755 18.8473 23.0192C18.5894 23.263 18.2396 23.4 17.875 23.4H4.125C3.76032 23.4 3.41059 23.263 3.15272 23.0192C2.89487 22.7755 2.75 22.4448 2.75 22.1V13C2.75 12.6552 2.89487 12.3245 3.15272 12.0808C3.41059 11.837 3.76032 11.7 4.125 11.7H17.875C18.2396 11.7 18.5894 11.837 18.8473 12.0808C19.1051 12.3245 19.25 12.6552 19.25 13V22.1Z" fill="#51AF5B"/>
</svg>
