<svg width="28" height="24" viewBox="0 0 28 24" fill="none" xmlns="http://www.w3.org/2000/svg">
<mask id="mask0_430_314" style="mask-type:luminance" maskUnits="userSpaceOnUse" x="0" y="0" width="28" height="24">
<path d="M27.9751 0H0.0993652V24H27.9751V0Z" fill="white"/>
</mask>
<g mask="url(#mask0_430_314)">
<path d="M23.3408 15.38C21.9122 15.38 20.53 15.18 19.2408 14.82C18.8342 14.7 18.3813 14.79 18.0677 15.06L16.2441 17.03C12.9571 15.68 9.87914 13.13 8.24144 10.2L10.5063 8.54C10.82 8.26 10.9129 7.87 10.7851 7.52C10.3554 6.41 10.1347 5.22 10.1347 3.99C10.1347 3.45 9.612 3 8.98479 3H4.96604C4.33883 3 3.58386 3.24 3.58386 3.99C3.58386 13.28 12.5622 21 23.3408 21C24.1655 21 24.4907 20.37 24.4907 19.82V16.37C24.4907 15.83 23.968 15.38 23.3408 15.38Z" fill="#51AF5B"/>
</g>
</svg>
