<svg width="29" height="24" viewBox="0 0 29 24" fill="none" xmlns="http://www.w3.org/2000/svg">
<path d="M19.0234 12.71C20.1621 11.9387 20.9933 10.8809 21.4012 9.68394C21.8092 8.48697 21.7737 7.21027 21.2997 6.03147C20.8257 4.85267 19.9367 3.83039 18.7564 3.10686C17.5761 2.38332 16.1631 1.99451 14.7143 1.99451C13.2653 1.99451 11.8525 2.38332 10.6722 3.10686C9.49189 3.83039 8.60289 4.85267 8.12885 6.03147C7.65481 7.21027 7.6193 8.48697 8.02728 9.68394C8.43525 10.8809 9.2664 11.9387 10.4051 12.71C8.4539 13.383 6.7514 14.4994 5.47912 15.9399C4.20682 17.3805 3.41244 19.0913 3.18065 20.89C3.16387 21.0213 3.1773 21.1542 3.22017 21.2811C3.26304 21.4079 3.33451 21.5263 3.4305 21.6293C3.62437 21.8375 3.90633 21.9708 4.21438 22C4.52242 22.0292 4.83132 21.9518 5.07309 21.7849C5.31488 21.618 5.46974 21.3752 5.50364 21.11C5.75868 19.1552 6.8413 17.3498 8.54467 16.0388C10.248 14.7278 12.4527 14.003 14.7375 14.003C17.0223 14.003 19.2269 14.7278 20.9303 16.0388C22.6336 17.3498 23.7163 19.1552 23.9713 21.11C24.0029 21.3557 24.1391 21.5827 24.3536 21.747C24.5681 21.9114 24.8457 22.0015 25.1328 22H25.2606C25.565 21.9698 25.8433 21.8373 26.0348 21.6313C26.2263 21.4252 26.3153 21.1624 26.2827 20.9C26.0498 19.0962 25.2512 17.381 23.9723 15.9382C22.6935 14.4954 20.9827 13.3795 19.0234 12.71ZM14.7143 12C13.7954 12 12.8971 11.7654 12.1331 11.3259C11.3691 10.8864 10.7736 10.2616 10.4219 9.53074C10.0703 8.79983 9.97829 7.99557 10.1576 7.21964C10.3368 6.44372 10.7793 5.73099 11.4291 5.17158C12.0788 4.61217 12.9066 4.2312 13.8078 4.07686C14.7091 3.92252 15.6432 4.00173 16.4922 4.30448C17.3411 4.60724 18.0667 5.11993 18.5773 5.77772C19.0877 6.43552 19.3602 7.20888 19.3602 8C19.3602 9.06087 18.8708 10.0783 17.9994 10.8284C17.1282 11.5786 15.9465 12 14.7143 12Z" fill="#51AF5B"/>
</svg>
