<svg width="211" height="48" viewBox="0 0 211 48" fill="none" xmlns="http://www.w3.org/2000/svg">
<path d="M85.5852 18.8146L82.7984 23.6383C81.8365 25.3076 81.8365 27.3588 82.7984 29.0281L90.7628 42.8348C89.8008 41.1655 89.8008 39.1144 90.7628 37.4451L94.0447 31.7582L97.4822 25.7037L99.2505 26.7224C99.5476 26.8919 99.8871 26.5666 99.7173 26.2555L94.4832 17.1453L83.9726 17.1736C83.6331 17.1736 83.5057 17.6262 83.8028 17.796L85.5852 18.8146Z" fill="url(#paint0_linear_464_506)"/>
<path d="M94.0589 31.7583L90.7769 37.4452C89.815 39.1143 89.815 41.1656 90.7769 42.8348C91.7389 44.5182 93.5355 45.5508 95.4877 45.5508H102.716V31.815L94.0589 31.7583Z" fill="url(#paint1_linear_464_506)"/>
<path d="M94.4832 17.1309L83.9726 17.1592C83.6331 17.1592 83.5057 17.6118 83.8028 17.7816L85.5711 18.8001L82.7984 23.6381C81.8365 25.3074 81.8365 27.3587 82.7984 29.0277L86.7735 35.903C85.8116 34.2337 85.8116 32.1824 86.7735 30.5131L89.5462 25.7035L94.4832 17.1309Z" fill="url(#paint2_linear_464_506)"/>
<path d="M102.702 38.6622H95.4731C93.8039 38.6622 92.2478 37.8982 91.2293 36.625L90.7624 37.4457C89.8005 39.115 89.8005 41.166 90.7624 42.8353C91.7385 44.5187 93.5351 45.5515 95.4873 45.5515H102.716V38.6622H102.702Z" fill="url(#paint3_linear_464_506)"/>
<path d="M122.988 7.51164L120.201 2.68778C119.239 1.03267 117.456 0 115.533 0H99.5898C101.514 0 103.296 1.03267 104.258 2.70194L107.54 8.38872L111.063 14.4009L109.294 15.4194C108.997 15.5892 109.11 16.0418 109.464 16.0418L119.975 16.0701L125.209 6.95995C125.378 6.66288 125.039 6.32336 124.742 6.49311L122.988 7.51164Z" fill="url(#paint4_linear_464_506)"/>
<path d="M107.541 8.38872L104.259 2.70191C103.297 1.03267 101.514 0 99.5904 0C97.6383 0 95.8417 1.03267 94.8797 2.71607L91.2583 8.98286L103.155 15.8579L107.541 8.38872Z" fill="url(#paint5_linear_464_506)"/>
<path d="M119.989 16.0701L125.223 6.95995C125.393 6.66288 125.053 6.32336 124.756 6.49311L122.988 7.51164L120.201 2.68778C119.239 1.03267 117.457 0 115.533 0H107.597C109.521 0 111.303 1.03267 112.265 2.70194L115.038 7.51164L119.989 16.0701Z" fill="url(#paint6_linear_464_506)"/>
<path d="M97.2422 12.4345L100.849 6.1819C101.684 4.73898 103.113 3.77704 104.74 3.5224L104.273 2.70191C103.297 1.03267 101.514 0 99.5904 0C97.6383 0 95.8417 1.03267 94.8797 2.71607L91.2583 8.98286L97.2422 12.4345Z" fill="url(#paint7_linear_464_506)"/>
<path d="M114.062 45.5506H119.621C121.545 45.5506 123.328 44.518 124.29 42.8487L132.254 29.0421C131.292 30.7112 129.509 31.744 127.586 31.744H121.022L114.048 31.7863V29.7494C114.048 29.4097 113.595 29.2825 113.425 29.5796L108.148 38.6615L113.425 47.7432C113.595 48.0403 114.048 47.9131 114.048 47.5737L114.062 45.5506Z" fill="url(#paint8_linear_464_506)"/>
<path d="M121.036 31.7579H127.6C129.523 31.7579 131.306 30.725 132.268 29.0557C133.244 27.3723 133.244 25.2928 132.268 23.6094L128.66 17.3569L116.764 24.2321L121.036 31.7579Z" fill="url(#paint9_linear_464_506)"/>
<path d="M108.163 38.6896L113.439 47.7716C113.609 48.0686 114.061 47.9411 114.061 47.6017V45.5505H119.621C121.545 45.5505 123.327 44.5179 124.289 42.8486L128.264 35.9736C127.302 37.6427 125.52 38.6755 123.596 38.6755H118.036L108.163 38.6896Z" fill="url(#paint10_linear_464_506)"/>
<path opacity="0.5" d="M122.988 7.51164L120.201 2.68778C119.239 1.03267 117.456 0 115.533 0H99.5898C101.514 0 103.296 1.03267 104.258 2.70194L107.54 8.38872L111.063 14.4009L109.294 15.4194C108.997 15.5892 109.11 16.0418 109.464 16.0418L119.975 16.0701L125.209 6.95995C125.378 6.66288 125.039 6.32336 124.742 6.49311L122.988 7.51164Z" fill="url(#paint11_radial_464_506)"/>
<path opacity="0.5" d="M107.54 8.38872L104.258 2.70191C103.296 1.03267 101.514 0 99.5899 0C97.6377 0 95.8411 1.03267 94.8792 2.71607C104.272 2.68778 103.169 15.8438 103.169 15.8438L107.54 8.38872Z" fill="url(#paint12_linear_464_506)"/>
<path opacity="0.5" d="M94.0589 31.7583L90.7769 37.4452C89.815 39.1143 89.815 41.1656 90.7769 42.8348C91.7389 44.5182 93.5355 45.5508 95.4877 45.5508C90.7769 37.4309 102.716 31.815 102.716 31.815L94.0589 31.7583Z" fill="url(#paint13_linear_464_506)"/>
<path opacity="0.5" d="M114.062 45.5506H119.621C121.545 45.5506 123.328 44.518 124.29 42.8487L132.254 29.0421C131.292 30.7112 129.509 31.744 127.586 31.744H121.022L114.048 31.7863V29.7494C114.048 29.4097 113.595 29.2825 113.425 29.5796L108.148 38.6615L113.425 47.7432C113.595 48.0403 114.048 47.9131 114.048 47.5737L114.062 45.5506Z" fill="url(#paint14_linear_464_506)"/>
<path d="M1.99432 37V33.7145L15.0597 15.3821H1.96875V10.8182H22.0142V14.1037L8.93608 32.4361H22.0398V37H1.99432ZM30.8001 37H24.8683L33.9066 10.8182H41.0401L50.0657 37H44.1339L37.5756 16.8011H37.3711L30.8001 37ZM30.4293 26.7088H44.4407V31.0298H30.4293V26.7088ZM53.217 37V10.8182H63.6999C65.6261 10.8182 67.2326 11.1037 68.5195 11.6747C69.8065 12.2457 70.7738 13.0384 71.4215 14.0526C72.0692 15.0582 72.3931 16.2173 72.3931 17.5298C72.3931 18.5526 72.1886 19.4517 71.7795 20.2273C71.3704 20.9943 70.8079 21.625 70.092 22.1193C69.3846 22.6051 68.5749 22.9503 67.663 23.1548V23.4105C68.6602 23.4531 69.5934 23.7344 70.4627 24.2543C71.3406 24.7741 72.0522 25.5028 72.5977 26.4403C73.1431 27.3693 73.4158 28.4773 73.4158 29.7642C73.4158 31.1534 73.0707 32.3935 72.3803 33.4844C71.6985 34.5668 70.6886 35.4233 69.3505 36.054C68.0124 36.6847 66.3633 37 64.4031 37H53.217ZM58.7525 32.4744H63.2653C64.8079 32.4744 65.9329 32.1804 66.6403 31.5923C67.3477 30.9957 67.7014 30.2031 67.7014 29.2145C67.7014 28.4901 67.5266 27.8509 67.1772 27.2969C66.8278 26.7429 66.3292 26.3082 65.6815 25.9929C65.0423 25.6776 64.2795 25.5199 63.3931 25.5199H58.7525V32.4744ZM58.7525 21.7741H62.8562C63.6147 21.7741 64.288 21.642 64.8761 21.3778C65.4727 21.1051 65.9414 20.7216 66.2823 20.2273C66.6317 19.733 66.8065 19.1406 66.8065 18.4503C66.8065 17.5043 66.4698 16.7415 65.7965 16.1619C65.1317 15.5824 64.1857 15.2926 62.9585 15.2926H58.7525V21.7741Z" fill="#72B600"/>
<path d="M142.276 37V10.8182H152.605C154.582 10.8182 156.27 11.1719 157.668 11.8793C159.074 12.5781 160.143 13.571 160.876 14.858C161.618 16.1364 161.989 17.6406 161.989 19.3707C161.989 21.1094 161.614 22.6051 160.864 23.858C160.114 25.1023 159.027 26.0568 157.604 26.7216C156.189 27.3864 154.476 27.7188 152.464 27.7188H145.548V23.2699H151.57C152.626 23.2699 153.504 23.125 154.203 22.8352C154.902 22.5455 155.422 22.1108 155.763 21.5312C156.112 20.9517 156.287 20.2315 156.287 19.3707C156.287 18.5014 156.112 17.7685 155.763 17.1719C155.422 16.5753 154.898 16.1236 154.19 15.8168C153.491 15.5014 152.609 15.3438 151.544 15.3438H147.811V37H142.276ZM156.415 25.0852L162.922 37H156.811L150.445 25.0852H156.415ZM165.901 37V10.8182H176.23C178.207 10.8182 179.895 11.1719 181.293 11.8793C182.699 12.5781 183.768 13.571 184.501 14.858C185.243 16.1364 185.614 17.6406 185.614 19.3707C185.614 21.1094 185.239 22.6051 184.489 23.858C183.739 25.1023 182.652 26.0568 181.229 26.7216C179.814 27.3864 178.101 27.7188 176.089 27.7188H169.173V23.2699H175.195C176.251 23.2699 177.129 23.125 177.828 22.8352C178.527 22.5455 179.047 22.1108 179.388 21.5312C179.737 20.9517 179.912 20.2315 179.912 19.3707C179.912 18.5014 179.737 17.7685 179.388 17.1719C179.047 16.5753 178.523 16.1236 177.815 15.8168C177.116 15.5014 176.234 15.3438 175.169 15.3438H171.436V37H165.901ZM180.04 25.0852L186.547 37H180.436L174.07 25.0852H180.04ZM189.526 37V10.8182H199.855C201.832 10.8182 203.52 11.1719 204.918 11.8793C206.324 12.5781 207.393 13.571 208.126 14.858C208.868 16.1364 209.239 17.6406 209.239 19.3707C209.239 21.1094 208.864 22.6051 208.114 23.858C207.364 25.1023 206.277 26.0568 204.854 26.7216C203.439 27.3864 201.726 27.7188 199.714 27.7188H192.798V23.2699H198.82C199.876 23.2699 200.754 23.125 201.453 22.8352C202.152 22.5455 202.672 22.1108 203.013 21.5312C203.362 20.9517 203.537 20.2315 203.537 19.3707C203.537 18.5014 203.362 17.7685 203.013 17.1719C202.672 16.5753 202.148 16.1236 201.44 15.8168C200.741 15.5014 199.859 15.3438 198.794 15.3438H195.061V37H189.526ZM203.665 25.0852L210.172 37H204.061L197.695 25.0852H203.665Z" fill="#51AF5B"/>
<defs>
<linearGradient id="paint0_linear_464_506" x1="90.5011" y1="3.23952" x2="91.2881" y2="46.7499" gradientUnits="userSpaceOnUse">
<stop offset="0.2544" stop-color="#90D856"/>
<stop offset="0.736" stop-color="#00CC00"/>
</linearGradient>
<linearGradient id="paint1_linear_464_506" x1="142.964" y1="38.6546" x2="92.5073" y2="38.6546" gradientUnits="userSpaceOnUse">
<stop stop-color="#00CC00"/>
<stop offset="0.1878" stop-color="#06C102"/>
<stop offset="0.5185" stop-color="#17A306"/>
<stop offset="0.9507" stop-color="#33740C"/>
<stop offset="1" stop-color="#366E0D"/>
</linearGradient>
<linearGradient id="paint2_linear_464_506" x1="88.5725" y1="16.7848" x2="86.7736" y2="47.1409" gradientUnits="userSpaceOnUse">
<stop stop-color="#90D856"/>
<stop offset="1" stop-color="#00CC00"/>
</linearGradient>
<linearGradient id="paint3_linear_464_506" x1="138.579" y1="41.0892" x2="88.7582" y2="41.0892" gradientUnits="userSpaceOnUse">
<stop stop-color="#00CC00"/>
<stop offset="0.1878" stop-color="#06C102"/>
<stop offset="0.5185" stop-color="#17A306"/>
<stop offset="0.9507" stop-color="#33740C"/>
<stop offset="1" stop-color="#366E0D"/>
</linearGradient>
<linearGradient id="paint4_linear_464_506" x1="134.034" y1="19.5668" x2="95.9605" y2="-1.50674" gradientUnits="userSpaceOnUse">
<stop offset="0.2544" stop-color="#90D856"/>
<stop offset="0.736" stop-color="#00CC00"/>
</linearGradient>
<linearGradient id="paint5_linear_464_506" x1="77.1336" y1="47.2925" x2="102.362" y2="3.59664" gradientUnits="userSpaceOnUse">
<stop stop-color="#00CC00"/>
<stop offset="0.1878" stop-color="#06C102"/>
<stop offset="0.5185" stop-color="#17A306"/>
<stop offset="0.9507" stop-color="#33740C"/>
<stop offset="1" stop-color="#366E0D"/>
</linearGradient>
<linearGradient id="paint6_linear_464_506" x1="123.268" y1="11.124" x2="97.8792" y2="-5.61198" gradientUnits="userSpaceOnUse">
<stop stop-color="#90D856"/>
<stop offset="1" stop-color="#00CC00"/>
</linearGradient>
<linearGradient id="paint7_linear_464_506" x1="77.2182" y1="42.2784" x2="102.129" y2="-0.866781" gradientUnits="userSpaceOnUse">
<stop stop-color="#00CC00"/>
<stop offset="0.1878" stop-color="#06C102"/>
<stop offset="0.5185" stop-color="#17A306"/>
<stop offset="0.9507" stop-color="#33740C"/>
<stop offset="1" stop-color="#366E0D"/>
</linearGradient>
<linearGradient id="paint8_linear_464_506" x1="98.1057" y1="49.1016" x2="135.392" y2="26.6646" gradientUnits="userSpaceOnUse">
<stop offset="0.2544" stop-color="#90D856"/>
<stop offset="0.736" stop-color="#00CC00"/>
</linearGradient>
<linearGradient id="paint9_linear_464_506" x1="104.47" y1="-14.0275" x2="134.827" y2="43.4243" gradientUnits="userSpaceOnUse">
<stop stop-color="#00CC00"/>
<stop offset="0.1878" stop-color="#06C102"/>
<stop offset="0.5185" stop-color="#17A306"/>
<stop offset="0.9507" stop-color="#33740C"/>
<stop offset="1" stop-color="#366E0D"/>
</linearGradient>
<linearGradient id="paint10_linear_464_506" x1="95.2877" y1="51.7699" x2="122.476" y2="38.1497" gradientUnits="userSpaceOnUse">
<stop stop-color="#90D856"/>
<stop offset="1" stop-color="#00CC00"/>
</linearGradient>
<radialGradient id="paint11_radial_464_506" cx="0" cy="0" r="1" gradientUnits="userSpaceOnUse" gradientTransform="translate(114.547 3.05567) rotate(160.731) scale(11.03 5.66576)">
<stop stop-color="#FBE07A" stop-opacity="0.75"/>
<stop offset="0.0803394" stop-color="#FBE387" stop-opacity="0.6897"/>
<stop offset="0.5173" stop-color="#FDF2C7" stop-opacity="0.362"/>
<stop offset="0.8357" stop-color="#FFFBF0" stop-opacity="0.1233"/>
<stop offset="1" stop-color="white" stop-opacity="0"/>
</radialGradient>
<linearGradient id="paint12_linear_464_506" x1="103.859" y1="-3.9024" x2="99.558" y2="11.4443" gradientUnits="userSpaceOnUse">
<stop stop-color="#3C2200"/>
<stop offset="0.2217" stop-color="#3B2D02" stop-opacity="0.7783"/>
<stop offset="0.6109" stop-color="#394A07" stop-opacity="0.3891"/>
<stop offset="1" stop-color="#366E0D" stop-opacity="0"/>
</linearGradient>
<linearGradient id="paint13_linear_464_506" x1="85.2432" y1="41.1061" x2="100.684" y2="37.1571" gradientUnits="userSpaceOnUse">
<stop stop-color="#3C2200"/>
<stop offset="0.2217" stop-color="#3B2D02" stop-opacity="0.7783"/>
<stop offset="0.6109" stop-color="#394A07" stop-opacity="0.3891"/>
<stop offset="1" stop-color="#366E0D" stop-opacity="0"/>
</linearGradient>
<linearGradient id="paint14_linear_464_506" x1="132.462" y1="52.6684" x2="119.223" y2="33.0214" gradientUnits="userSpaceOnUse">
<stop stop-color="#3C2200"/>
<stop offset="0.2217" stop-color="#3B2D02" stop-opacity="0.7783"/>
<stop offset="0.6109" stop-color="#394A07" stop-opacity="0.3891"/>
<stop offset="1" stop-color="#366E0D" stop-opacity="0"/>
</linearGradient>
</defs>
</svg>
