<svg width="500" height="389" viewBox="0 0 500 389" fill="none" xmlns="http://www.w3.org/2000/svg">
<g filter="url(#filter0_d_438_412)">
<path d="M441.531 255.767C448.352 189.433 343.894 47.3312 273.881 117.647C237.029 154.674 147.362 197.71 81.5295 219.749C17.5164 241.179 149.764 347.918 249.18 357.864C348.595 367.809 434.705 322.102 441.531 255.767Z" fill="#B3E55E"/>
</g>
<path d="M112.3 305.24C116.135 305.24 116.141 299.362 112.3 299.362C108.46 299.362 108.454 305.24 112.3 305.24Z" fill="#0071F2"/>
<path d="M76.9035 170.47C80.7383 170.47 80.7441 164.591 76.9035 164.591C73.063 164.591 73.0572 170.47 76.9035 170.47Z" fill="#51AF5B"/>
<path d="M137.394 85.5824C141.229 85.5824 141.234 79.698 137.394 79.698C133.553 79.698 133.553 85.5824 137.394 85.5824Z" fill="#0071F2"/>
<path d="M137.394 85.5824C141.229 85.5824 141.234 79.698 137.394 79.698C133.553 79.698 133.553 85.5824 137.394 85.5824Z" fill="#0071F2"/>
<path d="M61.0331 301.908C64.8678 301.908 64.8794 296.029 61.0331 296.029C57.1867 296.029 57.1752 301.908 61.0331 301.908Z" fill="#51AF5B"/>
<path d="M246.327 35.4599C250.162 35.4599 250.167 29.5756 246.327 29.5756C242.486 29.5756 242.481 35.4599 246.327 35.4599Z" fill="#51AF5B"/>
<path d="M208.21 261.253C212.045 261.253 212.051 255.374 208.21 255.374C204.37 255.374 204.364 261.253 208.21 261.253Z" fill="#0071F2"/>
<path d="M106.265 146.967C110.1 146.967 110.106 141.088 106.265 141.088C102.424 141.088 102.436 146.967 106.265 146.967Z" fill="#0071F2"/>
<path d="M132.727 333.808C136.562 333.808 136.568 327.923 132.727 327.923C128.887 327.923 128.881 333.808 132.727 333.808Z" fill="#51AF5B"/>
<path d="M340.891 307.901C344.726 307.901 344.732 302.022 340.891 302.022C337.051 302.022 337.051 307.901 340.891 307.901Z" fill="#51AF5B"/>
<path d="M351.98 78.1714C355.82 78.1714 355.826 72.2927 351.98 72.2927C348.133 72.2927 348.139 78.1714 351.98 78.1714Z" fill="#51AF5B"/>
<path d="M430.535 261.253C434.37 261.253 434.376 255.374 430.535 255.374C426.694 255.374 426.694 261.253 430.535 261.253Z" fill="#51AF5B"/>
<path d="M123.441 263.207C125.358 263.207 125.358 260.268 123.441 260.268C121.523 260.268 121.518 263.207 123.441 263.207Z" fill="#0071F2"/>
<path d="M313.349 48.3737C315.266 48.3737 315.272 45.4343 313.349 45.4343C311.426 45.4343 311.432 48.3737 313.349 48.3737Z" fill="#0071F2"/>
<path d="M265.131 146.323C267.049 146.323 267.049 143.384 265.131 143.384C263.214 143.384 263.208 146.323 265.131 146.323Z" fill="#51AF5B"/>
<path d="M289.745 269.553C291.663 269.553 291.669 266.613 289.745 266.613C287.822 266.613 287.822 269.553 289.745 269.553Z" fill="#0071F2"/>
<path d="M233.95 346.807C235.868 346.807 235.874 343.868 233.95 343.868C232.027 343.868 232.033 346.807 233.95 346.807Z" fill="#51AF5B"/>
<path d="M404.552 344.693C406.469 344.693 406.469 341.754 404.552 341.754C402.635 341.754 402.629 344.693 404.552 344.693Z" fill="#0071F2"/>
<path d="M267.216 203.93C269.133 203.93 269.133 200.991 267.216 200.991C265.299 200.991 265.293 203.93 267.216 203.93Z" fill="#51AF5B"/>
<path d="M180.674 42.5121C182.591 42.5121 182.597 39.5728 180.674 39.5728C178.75 39.5728 178.75 42.5121 180.674 42.5121Z" fill="#51AF5B"/>
<path d="M79.7796 237.135C81.697 237.135 81.7028 234.195 79.7796 234.195C77.8565 234.195 77.8622 237.135 79.7796 237.135Z" fill="#51AF5B"/>
<path d="M262.775 76.0011C264.692 76.0011 264.692 73.0618 262.775 73.0618C260.858 73.0618 260.852 76.0011 262.775 76.0011Z" fill="#51AF5B"/>
<path d="M433.411 88.8065C435.334 88.8065 435.334 85.8672 433.411 85.8672C431.488 85.8672 431.494 88.8065 433.411 88.8065Z" fill="#51AF5B"/>
<path d="M188.545 248.755C190.463 248.755 190.468 245.816 188.545 245.816C186.622 245.816 186.628 248.755 188.545 248.755Z" fill="#51AF5B"/>
<path d="M348.457 227.417C350.374 227.417 350.374 224.477 348.457 224.477C346.539 224.477 346.534 227.417 348.457 227.417Z" fill="#51AF5B"/>
<path d="M377.195 44.0159C379.112 44.0159 379.118 41.0765 377.195 41.0765C375.271 41.0765 375.277 44.0159 377.195 44.0159Z" fill="#0071F2"/>
<path d="M431.326 315.836C433.244 315.836 433.244 312.896 431.326 312.896C429.409 312.896 429.403 315.836 431.326 315.836Z" fill="#51AF5B"/>
<path d="M218.184 75.5568V83.7026L213.974 85.4799C213.974 85.4799 215.331 106.078 225.345 100.672C235.36 95.2662 238.051 86.1862 235.908 85.4799L232.905 83.7026L232.547 75.9498L218.184 75.5568Z" fill="#FED4C0"/>
<path d="M330.79 115.99L296.786 121.156C295.248 121.388 293.677 121.277 292.188 120.83C290.7 120.384 289.332 119.613 288.186 118.576C271.813 103.674 260.996 96.2175 254.424 92.4978C248.533 89.1711 236.07 84.9672 236.07 84.9672L236.197 85.5938L235.943 85.4912C224.26 109.479 213.997 85.4912 213.997 85.4912C213.997 85.4912 201.534 89.6895 195.643 93.0218C189.071 96.7416 178.254 104.192 161.881 119.1C160.733 120.138 159.363 120.908 157.873 121.354C156.382 121.799 154.809 121.909 153.27 121.675L119.265 116.514L112.473 133.563L151.745 143.913C154.543 144.65 157.47 144.784 160.325 144.305C163.18 143.826 165.897 142.747 168.291 141.139L193.472 124.181L193.581 123.816C194.101 142.82 195.591 163.583 195.591 163.583L196.065 172.988H253.766L253.794 172.464H253.898L254.372 163.059C254.372 163.059 255.862 142.296 256.382 123.292L256.491 123.657L281.764 140.638C284.158 142.245 286.875 143.325 289.731 143.804C292.586 144.283 295.512 144.149 298.31 143.412L337.582 133.062L330.79 115.99Z" fill="#2F2E41"/>
<path d="M239.674 57.6758C239.674 46.0495 233.379 36.6277 225.605 36.6277C217.832 36.6277 211.537 46.0495 211.537 57.7043H211.45C210.759 57.6778 210.071 57.8025 209.435 58.0696C208.8 58.3366 208.232 58.7394 207.772 59.2488C207.313 59.7582 206.974 60.3617 206.779 61.0158C206.585 61.67 206.54 62.3585 206.647 63.0319C206.754 63.7054 207.012 64.347 207.401 64.9106C207.789 65.4742 208.3 65.9458 208.896 66.2915C209.491 66.6373 210.157 66.8485 210.846 66.9101C211.534 66.9716 212.228 66.882 212.877 66.6476C215.129 73.7738 219.963 78.7182 225.582 78.7182C231.201 78.7182 236.024 73.7852 238.288 66.6761C238.929 66.8715 239.606 66.9282 240.271 66.8421C240.937 66.7561 241.576 66.5294 242.145 66.1776C242.713 65.8258 243.198 65.357 243.567 64.8034C243.935 64.2498 244.178 63.6243 244.279 62.9697C244.379 62.315 244.336 61.6467 244.151 61.0102C243.966 60.3736 243.644 59.784 243.207 59.2815C242.77 58.7789 242.228 58.3753 241.618 58.0982C241.008 57.8211 240.345 57.677 239.674 57.6758Z" fill="#FED4C0"/>
<path d="M213.067 61.7886C213.067 61.7886 212.23 45.571 218.074 42.0335C218.074 42.0335 220.217 39.3278 226.298 45.6792C232.38 52.0307 238.288 48.6243 238.288 48.6243C238.288 48.6243 239.772 59.5556 238.819 61.7886C238.819 61.7886 247.401 47.3255 237.982 39.9202C228.562 32.5149 223.439 35.0954 215.926 39.9202C215.926 39.9202 201.857 41.5835 213.067 61.7886Z" fill="#2F2E41"/>
<path d="M218.675 76.0011C220.639 77.2593 222.898 77.9987 225.236 78.1486C226.381 78.2014 227.526 78.0647 228.626 77.7442C229.192 77.5885 229.747 77.3983 230.289 77.1746C230.867 76.9581 231.352 76.6619 231.929 76.4397C231.487 76.8511 231.016 77.2317 230.52 77.579C230.003 77.9198 229.454 78.2098 228.88 78.4448C227.717 78.9348 226.458 79.1606 225.195 79.1056C223.934 79.0522 222.697 78.7419 221.563 78.1942C220.454 77.6716 219.47 76.9243 218.675 76.0011Z" fill="#F9C0AA"/>
<path d="M197.763 172.965V334.765H219.697L222.556 193.66H228.279L239.246 334.765H261.181L251.646 172.965H197.763Z" fill="#51AF5B"/>
<path d="M244.017 340.41C244.017 340.41 238.057 356.872 243.064 359.208H248.071C248.071 359.208 250.45 352.623 253.789 359.208H284.311C284.311 359.208 286.217 354.036 278.824 351.683C271.432 349.33 259.038 340.393 259.038 340.393L244.017 340.41Z" fill="#51AF5B"/>
<path d="M243.064 334.765L244.017 340.41H259.038V334.765H243.064Z" fill="#FED4C0"/>
<path d="M215.995 340.41C215.995 340.41 221.955 356.872 216.948 359.208H211.952C211.952 359.208 209.567 352.623 206.229 359.208H175.713C175.713 359.208 173.807 354.036 181.193 351.683C188.58 349.33 200.979 340.41 200.979 340.41H215.995Z" fill="#51AF5B"/>
<path d="M216.96 334.765L216.007 340.41H200.985V334.765H216.96Z" fill="#FED4C0"/>
<g opacity="0.2">
<path d="M230.254 193.261C228.659 193.605 227.03 193.767 225.397 193.745C223.765 193.77 222.135 193.608 220.54 193.261C222.134 192.909 223.764 192.745 225.397 192.771C227.03 192.748 228.66 192.912 230.254 193.261Z" fill="black"/>
</g>
<g opacity="0.2">
<path d="M197.266 144.853C197.486 146.35 197.824 147.828 198.277 149.274C198.479 150.003 198.75 150.709 198.987 151.421L199.853 153.506C201.086 156.242 202.744 158.771 204.768 161.002C206.765 163.252 209.131 165.155 211.768 166.63C213.075 167.403 214.442 168.072 215.857 168.63C217.26 169.239 218.744 169.604 220.2 170.151C219.449 169.997 218.692 169.837 217.941 169.661L216.786 169.405L216.209 169.274L215.66 169.086C214.185 168.599 212.75 167.999 211.369 167.291C208.565 165.898 206.061 163.983 203.994 161.652C201.912 159.346 200.272 156.686 199.154 153.802C197.998 150.951 197.359 147.922 197.266 144.853Z" fill="black"/>
</g>
<g opacity="0.2">
<path d="M204.127 147.474C204.656 148.895 205.297 150.274 206.044 151.598C206.397 152.264 206.813 152.902 207.2 153.552L208.493 155.414C210.264 157.835 212.405 159.97 214.84 161.743C217.285 163.537 220.018 164.912 222.926 165.81C224.368 166.303 225.847 166.683 227.349 166.949C228.845 167.257 230.387 167.308 231.918 167.548C231.144 167.548 230.376 167.548 229.608 167.548H228.453H227.875L227.297 167.473C225.751 167.305 224.222 167.014 222.723 166.602C219.689 165.818 216.835 164.464 214.32 162.614C211.789 160.785 209.614 158.519 207.898 155.927C206.147 153.35 204.871 150.488 204.127 147.474Z" fill="black"/>
</g>
<g opacity="0.2">
<path d="M246.321 108.225H229.469V128.96H246.321V108.225Z" fill="black"/>
</g>
<path d="M391.858 75.5339V84.6481L395.664 85.4684C395.664 85.4684 394.711 106.049 384.691 100.638C374.671 95.2263 371.575 86.1748 373.718 85.4684L377.056 84.4089L377.483 75.9156L391.858 75.5339Z" fill="#B86A4B"/>
<path d="M370.391 57.6531C370.391 46.0268 376.686 36.605 384.46 36.605C392.233 36.605 398.523 46.0268 398.523 57.6531H398.615C399.856 57.6531 401.046 58.1392 401.923 59.0045C402.8 59.8698 403.293 61.0434 403.293 62.2672C403.293 63.4909 402.8 64.6645 401.923 65.5298C401.046 66.3951 399.856 66.8812 398.615 66.8812C398.121 66.8773 397.631 66.7926 397.166 66.6306C394.913 73.7568 390.073 78.7012 384.46 78.7012C378.846 78.7012 374.012 73.7682 371.754 66.6591C371.113 66.8516 370.437 66.9055 369.773 66.8172C369.108 66.7289 368.471 66.5004 367.904 66.1473C367.337 65.7942 366.854 65.3248 366.488 64.771C366.121 64.2172 365.88 63.5921 365.781 62.9381C365.682 62.2841 365.726 61.6167 365.912 60.9813C366.097 60.3459 366.42 59.7574 366.857 59.2559C367.294 58.7544 367.835 58.3516 368.444 58.0751C369.053 57.7985 369.715 57.6545 370.386 57.6531H370.391Z" fill="#B86A4B"/>
<path d="M396.975 61.7659C396.975 61.7659 397.812 45.5711 391.968 42.0108C391.968 42.0108 389.825 39.3051 383.744 45.6565C377.662 52.008 371.754 48.6016 371.754 48.6016C371.754 48.6016 370.27 59.5329 371.223 61.7659C371.223 61.7659 362.641 47.3028 372.06 39.8975C381.48 32.4922 386.603 35.0727 394.116 39.8975C394.116 39.8747 408.179 41.5437 396.975 61.7659Z" fill="#2F2E41"/>
<path d="M391.367 75.9783C390.575 76.9105 389.59 77.6658 388.479 78.1942C387.348 78.7423 386.113 79.0527 384.853 79.1056C383.59 79.1605 382.33 78.9347 381.168 78.4448C380.593 78.2121 380.043 77.9219 379.528 77.579C379.032 77.2317 378.561 76.851 378.119 76.4397C378.696 76.6618 379.21 76.958 379.759 77.1745C380.3 77.3991 380.856 77.5894 381.422 77.7441C382.521 78.065 383.667 78.2017 384.812 78.1486C387.15 77.9909 389.407 77.2436 391.367 75.9783Z" fill="#B2593D"/>
<path d="M433.255 186.938L437.026 208.687C437.229 209.853 437.185 211.048 436.898 212.197C436.611 213.345 436.086 214.423 435.357 215.363L427.792 225.109C427.589 225.373 427.327 225.585 427.026 225.731C426.725 225.876 426.394 225.95 426.059 225.947C425.486 225.947 424.937 225.722 424.532 225.323C424.127 224.923 423.899 224.381 423.899 223.816C423.9 222.702 424.278 221.619 424.973 220.74L430.749 213.392C430.749 213.392 429.981 203.344 429.813 204.847L426.804 209.684C426.665 209.906 426.47 210.089 426.24 210.217C426.01 210.346 425.75 210.415 425.485 210.418C425.221 210.422 424.959 210.359 424.726 210.237C424.492 210.115 424.293 209.936 424.148 209.718C423.965 209.445 423.874 209.122 423.888 208.795C423.963 207.584 424.31 206.405 424.904 205.343L425.741 203.839C425.741 203.839 423.87 192.623 426.25 186.932L433.255 186.938Z" fill="#B86A4B"/>
<path d="M383.143 104.927L385.673 113.318L358.096 149.051C353.816 154.719 345.76 154.446 342.173 147.342C342.173 147.342 341.902 142.147 342.624 140.615C345.846 133.745 349.369 132.885 354.948 128.271L383.143 104.927Z" fill="#8C4D3E"/>
<path d="M384.137 105.907L386.666 114.298L359.089 150.031C354.81 155.699 346.753 155.426 343.167 148.322C343.167 148.322 342.895 143.127 343.617 141.595C346.84 134.725 350.363 133.865 355.942 129.251L384.137 105.907Z" fill="#8C4D3E"/>
<path d="M320.528 127.861C320.528 127.861 320.337 124.09 314.383 118.177C308.428 112.264 303.104 108.254 306.228 113.25L308.671 117.021C308.671 117.021 302.318 114.674 298.651 112.948C297.686 112.476 296.594 112.321 295.533 112.507C294.473 112.693 293.501 113.208 292.76 113.979C291.409 115.454 291.466 117.055 295.284 119.84C301.001 124.01 309.849 130.356 311.564 130.977C312.165 131.199 320.528 127.861 320.528 127.861Z" fill="#B86A4B"/>
<path d="M356.086 172.965H413.544L414.023 163.56L422.109 196.029L437.125 193.677C432.995 145.827 423.408 114.885 418.384 101.35C417.48 98.9133 416.073 96.6884 414.252 94.8164C412.431 92.9444 410.235 91.4662 407.803 90.4756L395.635 85.4969C395.635 85.4969 385.384 109.484 373.689 85.4969L361.52 90.4756C356.606 92.4807 350.241 96.2859 348.416 101.219C346.181 107.325 341.896 120.763 338.691 126.995C338.478 127.403 338.178 127.759 337.811 128.04C337.444 128.321 337.019 128.519 336.566 128.62C336.113 128.722 335.643 128.724 335.189 128.628C334.735 128.531 334.308 128.337 333.938 128.06L315.873 117.431L308.942 130.669L331.968 149.53C335.02 151.604 338.776 152.411 342.425 151.778C346.075 151.145 349.326 149.122 351.477 146.146L355.393 140.746L355.866 172.965H413.33" fill="#2F2E41"/>
<path d="M312.402 118.747C311.726 118.597 311.071 118.37 310.45 118.069C309.825 117.781 309.231 117.431 308.677 117.026C309.029 117.056 309.376 117.127 309.711 117.237C310.039 117.338 310.359 117.461 310.669 117.607C311.303 117.896 311.888 118.28 312.402 118.747Z" fill="#160B07"/>
<path d="M303.647 117.693C302.841 117.433 302.05 117.129 301.279 116.781C300.505 116.445 299.754 116.058 299.015 115.642C298.272 115.235 297.555 114.784 296.866 114.292C296.17 113.809 295.529 113.254 294.955 112.635C296.358 113.574 297.802 114.383 299.269 115.198C300.736 116.012 302.197 116.816 303.647 117.693Z" fill="#160B07"/>
<path d="M300.216 121.094C299.461 120.917 298.722 120.683 298.004 120.393C297.28 120.113 296.574 119.79 295.89 119.425C294.505 118.714 293.252 117.778 292.183 116.656C292.841 117.072 293.482 117.482 294.14 117.864C294.799 118.245 295.463 118.621 296.139 119.003L300.216 121.094Z" fill="#160B07"/>
<path d="M302.099 119.624C301.202 119.392 300.322 119.099 299.465 118.747C298.603 118.404 297.762 118.01 296.947 117.568C296.134 117.127 295.361 116.619 294.637 116.047C293.881 115.495 293.253 114.79 292.795 113.979C293.397 114.659 294.098 115.248 294.874 115.728C295.636 116.223 296.416 116.69 297.224 117.118C298.795 118.006 300.447 118.792 302.099 119.624Z" fill="#160B07"/>
<path d="M323.577 330.874L325.627 342.66L340.383 353.42C340.383 353.42 323.057 359.59 314.279 350.418L316.063 342.307L311.951 331.9L323.577 330.874Z" fill="#8C4D3E"/>
<path d="M268.914 330.874L268.851 342.66L254.112 353.42C254.112 353.42 271.438 359.59 280.216 350.418L278.432 342.307L280.557 331.9L268.914 330.874Z" fill="#8C4D3E"/>
<path d="M295.694 158.969L288.463 171.729C283.469 180.552 280.118 190.187 278.57 200.176L258.571 334.041L332.153 331.9L336.329 204.927C336.823 193.605 334.679 182.322 330.063 171.945C328.015 167.246 325.271 162.873 321.92 158.969H295.694Z" fill="#2F2E41"/>
<path d="M287.874 73.0161C287.996 74.6738 288.637 74.725 289.029 76.5707C289.607 79.2423 288.394 79.8005 288.966 81.9424C289.295 83.1557 289.717 83.0816 291.853 86.1349C294.083 89.2622 293.586 89.2622 294.77 90.5154C296.837 92.7199 297.773 92.0933 300.118 94.4687C301.671 96.0409 301.492 96.5536 303.208 98.103C303.889 98.7239 304.172 98.8663 306.829 100.615C311.235 103.509 311.507 103.788 312.54 104.033C314.148 104.302 315.798 104.187 317.351 103.697C319.084 103.258 319.136 102.888 322.064 101.783C324.992 100.678 325.246 100.957 326.349 100.205C328.007 99.0657 327.654 98.3365 329.647 96.6105C331.524 94.9814 332.049 95.4713 333.152 94.1269C334.567 92.418 333.857 91.4781 335.312 90.0027C336.415 88.8635 337.074 89.1768 338.269 87.9008C339.055 87.052 339.107 86.5678 339.892 85.0868C341.492 82.0734 342.202 82.4038 343.161 80.1993C343.675 79.0144 343.346 79.2195 344.368 75.5396C345.177 72.6174 345.327 72.6914 345.408 71.7515C345.639 68.9033 344.206 68.7211 344.726 66.6248C345.038 65.3659 345.881 64.0443 345.413 62.2671C344.945 58.9461 344.599 56.5137 342.751 54.2637C341.746 53.0446 341.596 53.4149 338.529 50.4699C336.606 48.6015 336.219 47.9862 334.891 47.2172C333.158 46.209 332.869 46.6476 330.721 45.645C327.937 44.3121 328.007 43.3266 325.772 42.6032C324.293 42.1304 324.282 42.5633 321.44 42.1475C317.836 41.6234 317.715 40.9056 315.902 41.0822C313.967 41.2702 313.747 42.1304 310.946 42.9393C308.602 43.6171 308.238 42.9393 306.453 43.6114C304.669 44.2836 304.802 44.9273 302.567 46.0894C299.921 47.4679 299.153 46.8527 297.917 48.0432C296.682 49.2338 297.305 49.9914 295.954 52.3497C294.845 54.275 294.308 53.9959 292.489 56.5023C291.452 57.9862 290.546 59.5546 289.78 61.1905C288.798 63.1101 288.302 64.0956 288.18 65.1153C287.984 66.7615 288.55 66.9381 288.458 69.0002C288.388 71.142 287.753 71.3471 287.874 73.0161Z" fill="#2F2E41"/>
<path d="M300.736 80.3588H300.788C301.117 70.9484 307.141 63.3893 314.77 63.2241C322.399 63.0589 328.757 70.3275 329.52 79.7151H329.577C331.888 79.6638 333.793 81.6747 333.851 84.2038C333.909 86.733 332.09 88.8293 329.809 88.8863C329.358 88.8861 328.91 88.809 328.486 88.6584C326.898 93.3294 323.791 96.9922 319.915 98.6214L320.031 110.27L319.511 118.815L307.631 117.961L307.874 110.555L308.81 97.6017H308.844C305.815 95.5707 303.513 92.6482 302.266 89.2508C301.848 89.4237 301.402 89.5202 300.949 89.5356C298.639 89.5869 296.734 87.5761 296.676 85.0469C296.618 82.5177 298.431 80.4158 300.736 80.3588Z" fill="#8C4D3E"/>
<path d="M272.547 197.773L270.439 213.181C270.33 214.016 270.413 214.864 270.682 215.663C270.951 216.462 271.399 217.191 271.992 217.795L278.224 224.323C278.399 224.502 278.612 224.642 278.847 224.731C279.083 224.821 279.335 224.858 279.587 224.842C280.01 224.839 280.416 224.671 280.715 224.374C281.013 224.077 281.181 223.676 281.181 223.258C281.134 222.464 280.797 221.714 280.234 221.145L275.48 216.229C275.48 216.229 275.694 209.148 275.885 210.202L278.397 213.472C278.524 213.624 278.685 213.745 278.868 213.825C279.051 213.906 279.25 213.943 279.449 213.935C279.649 213.927 279.844 213.873 280.019 213.778C280.195 213.682 280.345 213.548 280.459 213.386C280.592 213.193 280.652 212.958 280.626 212.726C280.518 211.873 280.205 211.059 279.714 210.35L279.003 209.33C279.003 209.33 280.031 201.39 277.97 197.493L272.547 197.773Z" fill="#8C4D3E"/>
<path d="M275.879 146.904L271.617 205.064L278.842 201.857L288.042 152.15L275.879 146.904Z" fill="#8C4D3E"/>
<path d="M274.863 156.206L277.271 125.172C277.471 122.58 278.294 120.073 279.671 117.856C281.047 115.639 282.939 113.777 285.189 112.424C287.826 110.829 290.687 109.624 293.678 108.846C298.312 107.761 303.059 107.218 307.822 107.229C307.822 107.229 312.829 120.871 319.979 107.229L329.866 110.51C332.703 111.454 335.312 112.963 337.533 114.943C339.753 116.924 341.537 119.333 342.774 122.022L353.447 139.333L344.951 149.587L330.594 139.789L321.931 158.969H295.694L289.919 139.333L287.805 156.206H274.863Z" fill="#51AF5B"/>
<path d="M164.67 66.2546C164.093 75.665 149.585 74.8675 150.076 65.4514C150.567 56.0353 165.173 56.8385 164.67 66.2546Z" fill="#2F2E41"/>
<path d="M131.676 67.7242C131.099 77.1346 116.591 76.3371 117.082 66.921C117.573 57.5049 132.173 58.3081 131.676 67.7242Z" fill="#2F2E41"/>
<path d="M156.596 82.6488H156.545C156.545 60.5753 130.319 59.1512 127.847 81.0766C121.581 80.6323 122.332 91.8997 128.61 90.0427C129.187 95.8473 130.671 99.4645 136.758 102.079C136.435 106.636 136.262 115.916 136.556 120.473L148.465 120.006L148.898 112.321L148.02 101.908C152.935 100.684 154.679 93.5801 154.777 91.4725C160.784 93.9903 162.822 82.9849 156.596 82.6488Z" fill="#B86A4B"/>
<path d="M138.225 102.968C141.084 102.968 143.683 103.23 146.426 102.444C144.324 104.517 140.674 104.352 138.225 102.968Z" fill="#B2593D"/>
<path d="M131.832 73.6371C136.146 73.6998 135.453 70.5326 136.002 67.9407C136.002 67.9407 138.566 73.7852 143.666 68.3622C144.821 67.1261 144.174 76.4454 150.128 69.9401C151.641 68.5103 153.016 76.9125 155.649 76.4511L155.563 84.7849C172.848 53.3637 107.333 51.0623 129.303 85.9925C129.303 86.0153 126.969 73.5687 131.832 73.6371Z" fill="#2F2E41"/>
<path d="M140.483 61.219L138.404 58.3708C138.404 58.3708 133.449 58.8948 136.325 57.1062C139.201 55.3175 139.75 56.7644 139.715 57.2942L140.483 61.219Z" fill="#2F2E41"/>
<path d="M183.914 199.698C183.746 203.338 188.106 216.947 184.491 219.721L178.254 226.249C175.851 228.106 174.246 224.728 176.244 223.064L181.026 218.148C181.026 218.148 180.812 211.074 180.622 212.122L178.109 215.391C177.457 216.286 175.77 215.796 175.88 214.651C175.978 213.415 176.775 212.247 177.503 211.233C177.503 211.233 176.475 203.292 178.537 199.396L183.914 199.698Z" fill="#B86A4B"/>
<path d="M180.587 148.824L184.843 206.984L177.619 203.777L168.419 154.076L180.587 148.824Z" fill="#B86A4B"/>
<path d="M162.652 171.918L161.701 172.201L161.844 172.67L162.795 172.387L162.652 171.918Z" fill="#200100"/>
<path d="M166.074 186.482L165.768 185.497L166.721 185.212L167.021 186.198L166.074 186.482ZM165.467 184.511L165.167 183.526L166.114 183.241L166.42 184.227L165.467 184.511ZM164.861 182.54L164.561 181.555L165.508 181.27L165.814 182.256L164.861 182.54ZM164.283 180.569L163.983 179.584L164.93 179.299L165.236 180.285L164.283 180.569ZM163.677 178.599L163.377 177.613L164.33 177.328L164.595 178.297L163.677 178.599ZM163.071 176.628L162.77 175.642L163.723 175.357L164.024 176.343L163.071 176.628ZM162.493 174.657L162.187 173.671L163.14 173.386L163.44 174.372L162.493 174.657Z" fill="#200100"/>
<path d="M167.694 187.946L166.74 188.23L166.884 188.7L167.838 188.416L167.694 187.946Z" fill="#200100"/>
<path d="M181.598 158.126C178.132 130.977 186.795 109.49 148.621 109.137C148.621 109.137 143.614 122.774 136.493 109.137L126.623 112.412C115.24 115.386 109.297 132.8 103.054 141.236V161.652L125.895 141.715L134.564 160.889H160.784L166.559 141.253L168.673 158.126H181.598Z" fill="#51AF5B"/>
<g opacity="0.2">
<path d="M120.49 131.017C122.879 134.255 124.696 137.868 125.866 141.703C123.474 138.467 121.656 134.853 120.49 131.017Z" fill="black"/>
</g>
<g opacity="0.2">
<path d="M166.576 141.27C167.324 136.512 168.745 131.882 170.798 127.513C170.05 132.271 168.629 136.902 166.576 141.27Z" fill="black"/>
</g>
<path d="M99.5657 104.95L92.1214 109.724L89.6265 154.56C89.522 156.138 89.8797 157.712 90.6568 159.095C91.4339 160.478 92.5977 161.612 94.0096 162.361C95.4215 163.11 97.022 163.443 98.6204 163.321C100.219 163.198 101.748 162.625 103.025 161.669C110.706 148.379 100.963 118.98 99.5657 104.95Z" fill="#B86A4B"/>
<path d="M100.311 112.891C100.311 112.891 102.269 110.043 101.252 102.575C100.236 95.1067 98.6243 89.3021 98.0988 94.5997L97.7696 98.6498C97.7696 98.6498 94.4777 93.5231 92.7913 90.2819C90.5389 86.4596 83.8743 86.4539 86.5309 93.4434C88.3386 99.5442 91.1973 108.915 92.0925 110.293C92.4044 110.772 100.311 112.891 100.311 112.891Z" fill="#B86A4B"/>
<path d="M99.5022 101.903C98.7054 100.946 98.1158 99.8395 97.7696 98.6499C98.6698 99.5345 99.2744 100.669 99.5022 101.903Z" fill="#B2593D"/>
<path d="M168.06 342.461C169.909 307.018 173.42 225.474 172.681 190.812C175.355 195.369 173.351 184.044 168.667 173.722C166.632 169.018 163.897 164.638 160.553 160.729H134.316C126.889 173.312 118.982 187.308 117.192 201.942L98.8784 333.842L97.3826 342.461L82.621 353.221C82.621 353.221 99.9469 359.396 108.731 350.219L106.946 342.107L145.727 192.481H147.148L158.502 342.107L156.718 350.219C165.479 359.396 182.828 353.221 182.828 353.221L168.06 342.461Z" fill="#B86A4B"/>
<path d="M188.545 359.219C188.545 359.219 169.054 359.578 164.405 355.232V359.219H155.823C155.823 359.219 153.126 345.058 157.694 345.787C162.262 346.516 178.519 358.752 178.883 350.344C182.256 352.27 189.186 354.195 188.545 359.219Z" fill="#2F2E41"/>
<path d="M134.425 160.729L127.195 173.495C112.514 196.086 113.992 227.941 110.267 247.263H173.553C173.94 220.535 180.812 182.438 160.651 160.706L134.425 160.729Z" fill="#2F2E41"/>
<path d="M76.9035 359.219C76.9035 359.219 96.3951 359.578 101.044 355.232V359.219H109.626C109.626 359.219 112.323 345.058 107.755 345.787C103.187 346.516 86.9294 358.752 86.5656 350.344C83.1928 352.27 76.2625 354.195 76.9035 359.219Z" fill="#2F2E41"/>
<path d="M318.373 99.1512C317.738 99.5052 317.047 99.7517 316.329 99.8804C315.615 100.022 314.885 100.076 314.157 100.04C313.421 99.9962 312.695 99.8445 312.003 99.5898C311.31 99.3275 310.689 98.908 310.19 98.3651C310.9 98.5645 311.547 98.7354 312.211 98.855C312.875 98.9746 313.539 99.0259 314.215 99.0658C315.567 99.117 316.918 99.117 318.373 99.1512Z" fill="#874032"/>
<g opacity="0.2">
<path d="M322.26 50.1737C322.065 50.175 321.87 50.1482 321.683 50.0939C320.349 49.7294 319.713 48.197 319.684 48.1287C319.66 48.0693 319.648 48.0057 319.649 47.9416C319.65 47.8775 319.663 47.8142 319.689 47.7554C319.715 47.6966 319.752 47.6434 319.799 47.599C319.846 47.5545 319.901 47.5196 319.962 47.4964C320.083 47.4475 320.22 47.4482 320.341 47.4984C320.462 47.5486 320.559 47.6441 320.608 47.7641C320.608 47.7641 321.094 48.9034 321.954 49.154C322.216 49.1992 322.486 49.1842 322.741 49.1101C322.996 49.036 323.231 48.9048 323.427 48.7268C323.479 48.6878 323.538 48.6593 323.601 48.643C323.664 48.6267 323.729 48.623 323.794 48.632C323.858 48.641 323.92 48.6626 323.976 48.6955C324.032 48.7284 324.081 48.772 324.12 48.8236C324.16 48.8751 324.189 48.9339 324.205 48.9965C324.222 49.0591 324.226 49.1244 324.216 49.1885C324.207 49.2526 324.185 49.3142 324.152 49.3699C324.119 49.4256 324.074 49.4742 324.022 49.5129C323.523 49.9171 322.905 50.1492 322.26 50.1737Z" fill="black"/>
</g>
<g opacity="0.2">
<path d="M337.853 58.6101C337.047 58.5578 336.277 58.2614 335.647 57.7613C335.545 57.6782 335.481 57.5586 335.469 57.4288C335.456 57.2991 335.497 57.1697 335.581 57.0692C335.665 56.9688 335.786 56.9054 335.918 56.8931C336.05 56.8808 336.181 56.9206 336.283 57.0037C336.283 57.0037 337.264 57.7955 338.136 57.5734C338.39 57.4929 338.622 57.3545 338.811 57.1694C339.001 56.9843 339.144 56.7578 339.228 56.5081C339.284 56.3914 339.385 56.3011 339.508 56.2564C339.631 56.2117 339.767 56.2162 339.886 56.2689C340.006 56.3234 340.098 56.4224 340.144 56.5441C340.189 56.6658 340.184 56.8004 340.129 56.9183C339.985 57.3068 339.749 57.6558 339.44 57.9362C339.132 58.2166 338.76 58.4203 338.356 58.5303C338.192 58.5763 338.024 58.6031 337.853 58.6101Z" fill="black"/>
</g>
<g opacity="0.2">
<path d="M328.37 63.412C327.566 63.3604 326.797 63.0639 326.17 62.5633C326.07 62.4793 326.008 62.3602 325.996 62.2314C325.984 62.1026 326.024 61.9744 326.106 61.874C326.191 61.7744 326.312 61.7119 326.443 61.7001C326.574 61.6884 326.704 61.7284 326.805 61.8114C326.805 61.8114 327.793 62.5918 328.659 62.381C328.912 62.2981 329.142 62.1589 329.331 61.9742C329.52 61.7894 329.664 61.5641 329.751 61.3158C329.81 61.204 329.91 61.1188 330.031 61.078C330.152 61.0372 330.284 61.0439 330.4 61.0967C330.516 61.1495 330.606 61.2444 330.653 61.3615C330.7 61.4787 330.7 61.6092 330.652 61.7259C330.507 62.1149 330.27 62.4641 329.96 62.7444C329.651 63.0248 329.278 63.2283 328.873 63.338C328.709 63.3823 328.54 63.4072 328.37 63.412Z" fill="black"/>
</g>
<path d="M314.862 67.7869C314.057 67.7353 313.289 67.4388 312.662 66.9382L313.297 66.1863C313.297 66.1863 314.279 66.9724 315.151 66.7559C315.404 66.673 315.634 66.5338 315.823 66.3491C316.012 66.1643 316.156 65.939 316.242 65.6907L317.143 66.1008C316.999 66.4903 316.762 66.8399 316.453 67.1204C316.143 67.4009 315.77 67.6041 315.365 67.7129C315.201 67.7572 315.032 67.7821 314.862 67.7869Z" fill="#560D0D"/>
<g opacity="0.2">
<path d="M333.915 73.0105C333.698 73.011 333.482 72.9803 333.274 72.9194C331.951 72.5149 331.356 70.9655 331.333 70.8972C331.294 70.7772 331.303 70.647 331.359 70.5336C331.415 70.4202 331.513 70.3324 331.633 70.2884C331.752 70.2444 331.885 70.2476 332.002 70.2973C332.119 70.347 332.213 70.4395 332.263 70.5554C332.263 70.5554 332.719 71.6947 333.574 71.9795C333.834 72.0357 334.104 72.0304 334.362 71.964C334.62 71.8977 334.859 71.7722 335.058 71.5978C335.165 71.5223 335.299 71.4918 335.429 71.5132C335.559 71.5346 335.675 71.606 335.751 71.7117C335.828 71.8175 335.859 71.9489 335.837 72.0771C335.815 72.2053 335.743 72.3198 335.636 72.3953C335.142 72.7737 334.54 72.989 333.915 73.0105Z" fill="black"/>
</g>
<g opacity="0.2">
<path d="M309.324 47.3312C309.106 47.3334 308.89 47.3007 308.683 47.2344C307.36 46.8356 306.759 45.2862 306.736 45.2178C306.713 45.1577 306.703 45.0936 306.705 45.0294C306.708 44.9651 306.723 44.902 306.75 44.8436C306.778 44.7853 306.817 44.733 306.865 44.6896C306.913 44.6463 306.969 44.6128 307.031 44.5912C307.154 44.5466 307.29 44.5514 307.41 44.6046C307.53 44.6579 307.624 44.7553 307.672 44.8761C307.672 44.8761 308.122 46.0153 308.977 46.3002C309.238 46.3524 309.508 46.3447 309.765 46.2775C310.023 46.2103 310.261 46.0855 310.461 45.9128C310.569 45.8373 310.703 45.8071 310.834 45.829C310.964 45.8509 311.081 45.9231 311.157 46.0296C311.234 46.1361 311.264 46.2683 311.242 46.397C311.22 46.5257 311.147 46.6405 311.039 46.716C310.547 47.0936 309.947 47.3089 309.324 47.3312Z" fill="black"/>
</g>
<g opacity="0.2">
<path d="M295.255 60.7405C295.038 60.7399 294.822 60.7072 294.614 60.6436C293.291 60.2392 292.697 58.6898 292.668 58.6214C292.622 58.4991 292.627 58.3637 292.682 58.2451C292.738 58.1265 292.838 58.0345 292.962 57.9891C293.086 57.9438 293.224 57.9489 293.344 58.0034C293.464 58.0579 293.557 58.1573 293.603 58.2796C293.603 58.2796 294.054 59.4189 294.909 59.7094C295.17 59.7617 295.439 59.7539 295.697 59.6868C295.954 59.6196 296.192 59.4948 296.393 59.3221C296.446 59.2847 296.506 59.258 296.57 59.2434C296.633 59.2289 296.699 59.2269 296.763 59.2375C296.828 59.248 296.889 59.271 296.945 59.3051C297 59.3392 297.048 59.3836 297.086 59.436C297.124 59.4884 297.151 59.5476 297.166 59.6103C297.18 59.673 297.182 59.7379 297.172 59.8014C297.161 59.8649 297.138 59.9256 297.103 59.9802C297.069 60.0348 297.023 60.0822 296.97 60.1196C296.479 60.4986 295.879 60.7158 295.255 60.7405Z" fill="black"/>
</g>
<g opacity="0.2">
<path d="M293.811 74.4972C293.594 74.4985 293.377 74.4658 293.17 74.4004C291.848 74.0016 291.253 72.4465 291.23 72.3839C291.191 72.2639 291.2 72.1337 291.256 72.0203C291.312 71.9069 291.409 71.8191 291.529 71.7751C291.649 71.7311 291.781 71.7343 291.899 71.784C292.016 71.8337 292.109 71.9262 292.16 72.0421C292.16 72.0421 292.616 73.2098 293.471 73.4662C293.731 73.5192 294 73.5124 294.258 73.4462C294.515 73.38 294.754 73.2562 294.955 73.0845C295.008 73.0471 295.068 73.0204 295.131 73.0059C295.195 72.9914 295.261 72.9893 295.325 72.9999C295.39 73.0105 295.451 73.0335 295.507 73.0675C295.562 73.1016 295.61 73.1461 295.648 73.1984C295.686 73.2508 295.713 73.31 295.728 73.3727C295.742 73.4354 295.744 73.5003 295.734 73.5638C295.723 73.6273 295.7 73.6881 295.665 73.7427C295.63 73.7973 295.585 73.8446 295.532 73.882C295.038 74.2604 294.436 74.4757 293.811 74.4972Z" fill="black"/>
</g>
<g opacity="0.2">
<path d="M306.736 57.3739C305.845 57.2965 305.011 56.9065 304.386 56.2745C304.294 56.1809 304.243 56.055 304.246 55.9247C304.248 55.7944 304.302 55.6702 304.397 55.5796C304.492 55.4889 304.62 55.4392 304.752 55.4413C304.884 55.4435 305.01 55.4973 305.102 55.591C305.102 55.591 305.997 56.4682 306.875 56.3828C307.136 56.3283 307.381 56.2152 307.59 56.0521C307.799 55.8891 307.968 55.6806 308.082 55.4429C308.153 55.3377 308.262 55.2636 308.387 55.2361C308.512 55.2086 308.643 55.2298 308.753 55.2952C308.862 55.3606 308.942 55.4652 308.975 55.5872C309.008 55.7092 308.992 55.8391 308.931 55.9498C308.743 56.3201 308.469 56.6409 308.13 56.8856C307.792 57.1303 307.399 57.2918 306.985 57.3568L306.736 57.3739Z" fill="black"/>
</g>
<path d="M328.486 74.5713C328.486 74.5713 323.704 73.4321 322.335 65.7192C322.335 65.7192 321.919 75.1695 301.885 74.2125L301.7 82.5463L297.08 76.0809C297.08 76.0809 301.7 58.6955 317.501 60.4614C320.034 60.8191 322.435 61.7985 324.484 63.3096C327.004 65.1054 329.115 67.4015 330.682 70.0504C332.248 72.6992 333.235 75.6421 333.58 78.6898L333.788 80.3589C333.788 80.3589 330.369 74.9587 327.926 84.6311L328.486 74.5713Z" fill="#2F2E41"/>
<g opacity="0.2">
<path d="M302.538 67.371C301.732 67.3209 300.963 67.0242 300.337 66.5223C300.243 66.4372 300.185 66.3196 300.177 66.1938C300.168 66.068 300.209 65.9437 300.291 65.8468C300.372 65.7499 300.489 65.6879 300.616 65.6737C300.743 65.6594 300.871 65.694 300.973 65.7703C300.973 65.7703 301.954 66.5621 302.826 66.34C303.079 66.2571 303.309 66.1179 303.498 65.9331C303.688 65.7484 303.831 65.5231 303.918 65.2747C303.977 65.1629 304.077 65.0778 304.198 65.037C304.319 64.9962 304.451 65.0029 304.567 65.0557C304.683 65.1085 304.774 65.2033 304.821 65.3205C304.868 65.4377 304.867 65.5682 304.819 65.6849C304.674 66.0738 304.437 66.423 304.127 66.7034C303.818 66.9838 303.445 67.1873 303.04 67.297C302.876 67.3413 302.708 67.3662 302.538 67.371Z" fill="black"/>
</g>
<g opacity="0.2">
<path d="M316.335 67.0635C315.528 67.0112 314.758 66.7148 314.129 66.2147C314.029 66.1307 313.967 66.0116 313.955 65.8828C313.943 65.7541 313.982 65.6258 314.065 65.5255C314.149 65.425 314.269 65.3614 314.4 65.3486C314.531 65.3358 314.662 65.3748 314.764 65.4571C314.764 65.4571 315.757 66.2432 316.618 66.0267C316.87 65.9439 317.1 65.8047 317.29 65.6199C317.479 65.4352 317.623 65.2099 317.709 64.9615C317.768 64.8497 317.868 64.7646 317.989 64.7238C318.11 64.683 318.242 64.6897 318.358 64.7425C318.474 64.7953 318.565 64.8901 318.612 65.0073C318.659 65.1244 318.658 65.2549 318.61 65.3717C318.466 65.7602 318.23 66.1092 317.922 66.3896C317.613 66.67 317.242 66.8737 316.837 66.9837C316.673 67.0294 316.505 67.0562 316.335 67.0635Z" fill="black"/>
</g>
<g opacity="0.2">
<path d="M338.379 82.5576C337.572 82.5068 336.801 82.2103 336.173 81.7089C336.078 81.6239 336.021 81.5062 336.012 81.3804C336.003 81.2546 336.044 81.1303 336.126 81.0334C336.208 80.9365 336.325 80.8745 336.452 80.8603C336.579 80.846 336.706 80.8807 336.808 80.9569C336.808 80.9569 337.79 81.7373 338.662 81.5266C338.915 81.4437 339.145 81.3045 339.334 81.1198C339.523 80.935 339.667 80.7097 339.753 80.4614C339.809 80.3436 339.909 80.2523 340.033 80.2075C340.156 80.1626 340.292 80.1679 340.412 80.2221C340.471 80.2485 340.525 80.2864 340.57 80.3335C340.614 80.3806 340.649 80.436 340.672 80.4965C340.694 80.557 340.704 80.6213 340.701 80.6857C340.698 80.7501 340.682 80.8133 340.654 80.8715C340.51 81.2601 340.274 81.6091 339.966 81.8895C339.658 82.1699 339.286 82.3736 338.881 82.4836C338.717 82.5246 338.549 82.5494 338.379 82.5576Z" fill="black"/>
</g>
<path d="M331.593 80.2335C331.361 77.6962 330.896 75.1851 330.201 72.7313C329.55 70.321 328.544 68.0179 327.215 65.8957C325.944 63.8319 324.114 62.159 321.931 61.0652C319.729 60.0477 317.286 59.6438 314.868 59.8974C312.409 60.1129 310.023 60.8322 307.862 62.0093C305.701 63.1863 303.813 64.7952 302.318 66.733C300.8 68.709 299.736 70.987 299.199 73.4092C298.662 75.8879 298.508 78.4327 298.743 80.9569C298.097 78.4344 297.925 75.8164 298.235 73.2326C298.576 70.5813 299.542 68.0454 301.053 65.8273C302.591 63.59 304.613 61.7178 306.975 60.3464C309.336 58.975 311.977 58.1386 314.706 57.898C316.081 57.7965 317.464 57.8577 318.824 58.0802C320.205 58.2944 321.541 58.7292 322.78 59.3676C325.228 60.6685 327.236 62.649 328.555 65.064C329.833 67.3738 330.715 69.8759 331.166 72.4693C331.634 75.0299 331.777 77.6379 331.593 80.2335Z" fill="#51AF5B"/>
<path d="M346.106 359.441C346.106 359.441 326.615 359.806 321.966 355.454V359.441H313.384C313.384 359.441 310.687 345.28 315.255 346.009C319.823 346.739 336.08 358.974 336.444 350.567L342.797 353.808C343.787 354.308 344.618 355.069 345.198 356.006C345.778 356.943 346.084 358.019 346.083 359.117L346.106 359.441Z" fill="#2F2E41"/>
<path d="M248.371 359.441C248.371 359.441 267.863 359.806 272.512 355.454V359.441H281.094C281.094 359.441 283.791 345.28 279.223 346.009C274.655 346.739 258.403 358.974 258.033 350.567L251.681 353.808C250.691 354.309 249.861 355.07 249.281 356.007C248.701 356.943 248.395 358.019 248.394 359.117L248.371 359.441Z" fill="#2F2E41"/>
<g opacity="0.2">
<path d="M323.727 172.031C323.621 172.031 323.517 171.998 323.431 171.935C323.346 171.872 323.284 171.784 323.254 171.683L322.838 170.322C322.813 170.259 322.801 170.191 322.803 170.124C322.806 170.056 322.823 169.99 322.852 169.929C322.882 169.868 322.924 169.814 322.977 169.77C323.029 169.726 323.089 169.693 323.155 169.673C323.22 169.654 323.29 169.648 323.358 169.655C323.426 169.663 323.491 169.685 323.551 169.719C323.61 169.753 323.661 169.799 323.701 169.854C323.742 169.909 323.77 169.971 323.785 170.037L324.218 171.444C324.256 171.569 324.243 171.703 324.181 171.818C324.12 171.933 324.015 172.02 323.889 172.059C323.834 172.057 323.779 172.047 323.727 172.031Z" fill="black"/>
<path d="M326.88 182.375C326.774 182.376 326.67 182.342 326.585 182.28C326.499 182.217 326.437 182.129 326.407 182.028L325.633 179.436C325.608 179.373 325.596 179.306 325.599 179.238C325.601 179.171 325.618 179.104 325.648 179.043C325.677 178.982 325.72 178.928 325.772 178.884C325.824 178.84 325.885 178.807 325.95 178.788C326.016 178.768 326.085 178.762 326.153 178.77C326.221 178.777 326.287 178.799 326.346 178.833C326.405 178.867 326.456 178.913 326.497 178.968C326.537 179.023 326.565 179.085 326.58 179.151L327.377 181.732C327.396 181.793 327.402 181.858 327.395 181.922C327.388 181.986 327.369 182.048 327.338 182.105C327.307 182.161 327.265 182.211 327.214 182.252C327.163 182.293 327.105 182.323 327.042 182.341C326.991 182.363 326.936 182.375 326.88 182.375ZM325.298 177.214C325.191 177.213 325.087 177.179 325.001 177.117C324.915 177.055 324.851 176.967 324.819 176.867L324.045 174.309C324.021 174.247 324.011 174.18 324.014 174.114C324.018 174.047 324.035 173.982 324.065 173.923C324.094 173.863 324.136 173.81 324.187 173.766C324.239 173.723 324.298 173.691 324.363 173.671C324.427 173.651 324.495 173.644 324.562 173.651C324.629 173.658 324.694 173.679 324.753 173.711C324.812 173.744 324.864 173.788 324.905 173.841C324.946 173.894 324.975 173.954 324.992 174.019L325.789 176.605C325.827 176.729 325.813 176.862 325.752 176.977C325.69 177.091 325.585 177.176 325.46 177.214C325.412 177.222 325.363 177.222 325.315 177.214H325.298Z" fill="black"/>
<path d="M328.122 186.363C328.016 186.363 327.912 186.33 327.826 186.267C327.741 186.204 327.679 186.116 327.649 186.015L327.215 184.608C327.177 184.484 327.191 184.349 327.253 184.234C327.315 184.119 327.421 184.034 327.547 183.996C327.674 183.958 327.81 183.971 327.927 184.033C328.043 184.094 328.13 184.199 328.168 184.323L328.601 185.73C328.621 185.792 328.628 185.857 328.621 185.921C328.615 185.986 328.595 186.048 328.564 186.105C328.533 186.162 328.491 186.212 328.439 186.252C328.388 186.293 328.329 186.322 328.266 186.34C328.22 186.356 328.171 186.364 328.122 186.363Z" fill="black"/>
</g>
<g opacity="0.2">
<path d="M335.971 129.103C334.786 132.932 332.969 136.542 330.594 139.789C331.785 135.962 333.601 132.353 335.971 129.103Z" fill="black"/>
</g>
<g opacity="0.2">
<path d="M289.884 139.333C287.848 134.957 286.428 130.327 285.662 125.571C286.701 127.748 287.566 130.001 288.25 132.31C288.976 134.606 289.522 136.954 289.884 139.333Z" fill="black"/>
</g>
<path d="M411.875 172.965V334.765H389.941L387.082 193.66H381.359L370.391 334.765H348.457L357.992 172.965H411.875Z" fill="#51AF5B"/>
<g opacity="0.2">
<path d="M355.37 114.172C355.572 116.388 355.67 118.599 355.751 120.814C355.832 123.03 355.855 125.246 355.867 127.456C355.878 129.667 355.867 131.888 355.751 134.104L355.612 137.425C355.532 138.53 355.48 139.641 355.37 140.746C355.254 139.641 355.208 138.53 355.127 137.425L354.989 134.104C354.896 131.888 354.885 129.672 354.873 127.456C354.862 125.241 354.873 123.03 354.989 120.814C355.104 118.599 355.179 116.388 355.37 114.172Z" fill="black"/>
</g>
<g opacity="0.2">
<path d="M413.544 115.346C413.793 119.333 413.925 123.378 414.047 127.394C414.168 131.41 414.197 135.431 414.283 139.447C414.37 143.463 414.324 147.485 414.283 151.501L414.208 157.528C414.145 159.538 414.116 161.549 414.024 163.56C413.891 161.549 413.821 159.544 413.717 157.533L413.51 151.524C413.394 147.502 413.354 143.486 413.279 139.47C413.203 135.454 413.232 131.433 413.279 127.417C413.325 123.401 413.382 119.368 413.544 115.346Z" fill="black"/>
</g>
<path d="M365.621 340.41C365.621 340.41 371.581 356.872 366.574 359.208H361.567C361.567 359.208 359.182 352.623 355.843 359.208H325.327C325.327 359.208 323.421 354.036 330.808 351.683C338.194 349.33 350.599 340.393 350.599 340.393L365.621 340.41Z" fill="#51AF5B"/>
<path d="M366.574 334.765L365.621 340.41H350.599V334.765H366.574Z" fill="#B86A4B"/>
<path d="M393.631 340.41C393.631 340.41 387.671 356.872 392.678 359.208H397.685C397.685 359.208 400.071 352.623 403.409 359.208H433.925C433.925 359.208 435.831 354.036 428.439 351.683C421.046 349.33 408.653 340.393 408.653 340.393L393.631 340.41Z" fill="#51AF5B"/>
<path d="M392.678 334.765L393.631 340.41H408.653V334.765H392.678Z" fill="#B86A4B"/>
<g opacity="0.2">
<path d="M379.978 193.261C381.572 192.912 383.202 192.748 384.835 192.771C386.468 192.745 388.099 192.909 389.692 193.261C388.098 193.608 386.468 193.77 384.835 193.745C383.203 193.767 381.573 193.605 379.978 193.261Z" fill="black"/>
</g>
<path d="M352.442 138.354L355.37 141.202L355.526 151.455C355.526 151.455 346.765 156.172 343.946 148.607L352.442 138.354Z" fill="#8C4D3E"/>
<path d="M300.43 96.1662H296.318V87.4622H300.43V96.1662ZM297.063 95.4314H299.685V88.197H297.063V95.4314Z" fill="#51AF5B"/>
<path d="M334.134 95.6991H330.022V86.9723H334.134V95.6991ZM330.767 94.9643H333.389V87.7242H330.767V94.9643Z" fill="#51AF5B"/>
<path d="M330.761 87.7242V86.6989H333.268C332.702 87.6536 331.815 88.3831 330.761 88.7609V87.7242Z" fill="#8C4D3E"/>
<path d="M299.737 89.3534V87.4395H297.375C297.909 88.3321 298.745 89.0099 299.737 89.3534Z" fill="#8C4D3E"/>
<path d="M132.398 109.593L133.663 112.623C133.961 113.34 134.064 114.121 133.963 114.889C133.861 115.657 133.559 116.386 133.085 117.004C132.891 117.268 132.664 117.507 132.41 117.716C132.042 118.034 131.622 118.288 131.168 118.468L126.704 120.285C126.547 120.35 126.384 120.401 126.219 120.439C125.924 120.537 125.617 120.59 125.306 120.598C124.353 120.673 123.401 120.446 122.587 119.952C121.773 119.457 121.139 118.72 120.778 117.847L119.548 114.816C119.273 114.157 119.275 113.417 119.554 112.759C119.832 112.1 120.364 111.578 121.032 111.307L128.858 108.134C129.524 107.868 130.269 107.872 130.932 108.145C131.595 108.418 132.122 108.938 132.398 109.593Z" fill="#FED4C0"/>
<path d="M133.108 117.004C132.914 117.268 132.687 117.507 132.433 117.716L129.944 111.951C129.897 111.842 129.896 111.72 129.941 111.61C129.986 111.501 130.073 111.413 130.183 111.367C130.294 111.321 130.418 111.32 130.529 111.364C130.64 111.409 130.729 111.495 130.775 111.603L133.108 117.004Z" fill="#F9C0AA"/>
<path d="M130.925 118.582L130.088 118.918L127.518 112.999C127.484 112.892 127.492 112.777 127.539 112.675C127.587 112.573 127.672 112.493 127.776 112.449C127.881 112.406 127.998 112.402 128.106 112.44C128.213 112.477 128.302 112.553 128.355 112.652L130.925 118.582Z" fill="#F9C0AA"/>
<path d="M128.459 119.578L127.616 119.92L125.115 114.138C125.073 114.032 125.074 113.913 125.118 113.807C125.162 113.7 125.246 113.615 125.352 113.569C125.461 113.528 125.581 113.529 125.688 113.573C125.795 113.616 125.882 113.698 125.93 113.802L128.459 119.578Z" fill="#F9C0AA"/>
<path d="M126.242 120.439C125.947 120.537 125.64 120.59 125.329 120.598L122.759 114.651C122.718 114.545 122.718 114.427 122.761 114.321C122.804 114.216 122.886 114.13 122.99 114.081C123.099 114.038 123.221 114.039 123.329 114.084C123.437 114.128 123.523 114.214 123.568 114.321L126.242 120.439Z" fill="#F9C0AA"/>
<path d="M336.952 113.694L335.665 116.719C335.361 117.432 334.876 118.056 334.255 118.529C333.635 119.002 332.901 119.309 332.124 119.419C331.797 119.465 331.466 119.475 331.137 119.447C330.649 119.413 330.171 119.3 329.722 119.111L325.269 117.271C324.829 117.08 324.42 116.824 324.056 116.514C323.326 115.898 322.815 115.069 322.595 114.147C322.376 113.225 322.461 112.258 322.838 111.387L324.126 108.362C324.406 107.706 324.939 107.187 325.607 106.918C326.274 106.649 327.023 106.652 327.689 106.927L335.491 110.157C335.824 110.293 336.126 110.493 336.379 110.745C336.633 110.997 336.834 111.296 336.969 111.625C337.105 111.954 337.174 112.306 337.171 112.661C337.168 113.016 337.094 113.367 336.952 113.694Z" fill="#FED4C0"/>
<path d="M332.124 119.419C331.797 119.465 331.466 119.475 331.137 119.447L333.522 113.637C333.567 113.528 333.655 113.44 333.765 113.394C333.876 113.348 334 113.348 334.111 113.392C334.222 113.437 334.311 113.523 334.357 113.632C334.404 113.741 334.405 113.864 334.359 113.973L332.124 119.419Z" fill="#F9C0AA"/>
<path d="M329.456 119.003L328.613 118.656L331.056 112.686C331.102 112.58 331.188 112.496 331.296 112.451C331.403 112.406 331.525 112.405 331.633 112.447C331.688 112.467 331.738 112.499 331.78 112.539C331.823 112.579 331.856 112.627 331.879 112.68C331.903 112.733 331.915 112.79 331.915 112.848C331.916 112.905 331.904 112.963 331.882 113.016L329.456 119.003Z" fill="#F9C0AA"/>
<path d="M326.99 117.983L326.153 117.636L328.549 111.808C328.57 111.754 328.601 111.704 328.642 111.662C328.682 111.62 328.731 111.587 328.785 111.565C328.84 111.542 328.898 111.531 328.957 111.532C329.015 111.533 329.073 111.545 329.127 111.569C329.234 111.616 329.318 111.7 329.365 111.806C329.411 111.912 329.414 112.031 329.375 112.139L326.99 117.983Z" fill="#F9C0AA"/>
<path d="M324.813 117.043C324.537 116.902 324.283 116.724 324.056 116.514L326.517 110.51C326.562 110.403 326.647 110.317 326.754 110.27C326.862 110.223 326.984 110.219 327.094 110.259C327.204 110.302 327.291 110.386 327.338 110.493C327.384 110.6 327.386 110.721 327.342 110.829L324.813 117.043Z" fill="#F9C0AA"/>
<path d="M412.204 92.4067L410.916 95.4258C410.614 96.1398 410.129 96.764 409.508 97.2374C408.888 97.7107 408.153 98.0168 407.376 98.1258C407.05 98.178 406.718 98.1876 406.389 98.1543C405.902 98.1224 405.423 98.0108 404.974 97.8239L400.521 95.9783C400.361 95.9185 400.208 95.8421 400.065 95.7504C399.788 95.6129 399.533 95.4364 399.308 95.2264C398.579 94.6105 398.068 93.7815 397.849 92.8596C397.629 91.9377 397.714 90.971 398.09 90.0996L399.377 87.0806C399.658 86.4249 400.19 85.9056 400.858 85.6365C401.526 85.3674 402.275 85.3705 402.941 85.6451L410.743 88.8749C411.075 89.0113 411.376 89.211 411.629 89.4626C411.883 89.7142 412.083 90.0127 412.219 90.341C412.354 90.6692 412.423 91.0207 412.421 91.3752C412.418 91.7298 412.345 92.0803 412.204 92.4067Z" fill="#8C4D3E"/>
<path d="M407.376 98.1259C407.05 98.178 406.718 98.1876 406.389 98.1543L408.774 92.344C408.819 92.2371 408.905 92.1519 409.013 92.1071C409.121 92.0623 409.243 92.0615 409.351 92.1048C409.461 92.148 409.549 92.2319 409.596 92.3384C409.644 92.4449 409.647 92.5656 409.606 92.6744L407.376 98.1259Z" fill="#874032"/>
<path d="M404.708 97.71L403.871 97.3682L406.314 91.3927C406.361 91.2876 406.447 91.2043 406.554 91.1599C406.661 91.1154 406.782 91.1131 406.891 91.1534C406.999 91.1988 407.084 91.2836 407.129 91.3899C407.174 91.4962 407.176 91.6156 407.134 91.7231L404.708 97.71Z" fill="#874032"/>
<path d="M402.242 96.696L401.41 96.3485L403.801 90.5211C403.822 90.4671 403.854 90.4179 403.895 90.3762C403.935 90.3346 403.984 90.3013 404.038 90.2785C404.091 90.2557 404.149 90.2437 404.208 90.2433C404.267 90.2429 404.325 90.2541 404.379 90.2762C404.487 90.3204 404.574 90.4048 404.62 90.5112C404.667 90.6176 404.669 90.7376 404.627 90.8458L402.242 96.696Z" fill="#874032"/>
<path d="M400.065 95.7505C399.788 95.613 399.533 95.4364 399.308 95.2264L401.768 89.2338C401.813 89.1267 401.899 89.0409 402.006 88.9942C402.114 88.9475 402.235 88.9435 402.346 88.9832C402.401 89.0039 402.451 89.0352 402.493 89.0752C402.535 89.1153 402.569 89.1633 402.592 89.2163C402.615 89.2694 402.627 89.3266 402.628 89.3843C402.628 89.4421 402.617 89.4994 402.594 89.5528L400.065 95.7505Z" fill="#874032"/>
<path d="M299.667 105.953L300.863 109.012C301.146 109.732 301.235 110.513 301.121 111.278C301.006 112.043 300.693 112.766 300.21 113.375C300.009 113.634 299.776 113.867 299.517 114.07C299.143 114.38 298.72 114.626 298.264 114.799L293.754 116.508C293.596 116.569 293.434 116.617 293.268 116.65C292.97 116.74 292.661 116.788 292.35 116.793C291.396 116.846 290.45 116.598 289.647 116.086C288.845 115.575 288.228 114.825 287.886 113.945L286.69 110.886C286.562 110.557 286.501 110.206 286.51 109.853C286.519 109.501 286.598 109.153 286.744 108.831C286.889 108.509 287.097 108.218 287.357 107.975C287.616 107.733 287.922 107.543 288.255 107.417L296.15 104.415C296.484 104.288 296.839 104.227 297.196 104.236C297.553 104.244 297.905 104.322 298.232 104.465C298.558 104.608 298.853 104.813 299.1 105.068C299.346 105.323 299.539 105.624 299.667 105.953Z" fill="#B86A4B"/>
<path d="M300.21 113.398C300.009 113.657 299.776 113.89 299.517 114.093L297.155 108.277C297.113 108.169 297.115 108.049 297.162 107.942C297.208 107.836 297.295 107.751 297.403 107.707C297.513 107.667 297.634 107.67 297.742 107.716C297.849 107.761 297.935 107.846 297.981 107.952L300.21 113.398Z" fill="#B2593D"/>
<path d="M298.004 114.924L297.155 115.249L294.724 109.274C294.684 109.164 294.689 109.043 294.737 108.937C294.786 108.831 294.874 108.747 294.984 108.704C295.038 108.683 295.096 108.673 295.155 108.674C295.214 108.675 295.272 108.687 295.325 108.711C295.379 108.734 295.427 108.768 295.468 108.809C295.508 108.851 295.54 108.901 295.561 108.955L298.004 114.924Z" fill="#B2593D"/>
<path d="M295.503 115.87L294.654 116.195L292.286 110.356C292.264 110.303 292.253 110.245 292.253 110.187C292.254 110.13 292.266 110.073 292.289 110.019C292.312 109.966 292.346 109.918 292.388 109.878C292.43 109.838 292.48 109.807 292.535 109.786C292.645 109.746 292.766 109.749 292.873 109.795C292.981 109.841 293.066 109.925 293.112 110.031L295.503 115.87Z" fill="#B2593D"/>
<path d="M293.268 116.679C292.97 116.768 292.661 116.816 292.35 116.821L289.919 110.817C289.88 110.709 289.883 110.59 289.929 110.484C289.975 110.379 290.06 110.294 290.167 110.248C290.278 110.207 290.401 110.211 290.509 110.259C290.617 110.307 290.702 110.395 290.744 110.504L293.268 116.679Z" fill="#B2593D"/>
<defs>
<filter id="filter0_d_438_412" x="60.7" y="98.5953" width="385.149" height="268.627" filterUnits="userSpaceOnUse" color-interpolation-filters="sRGB">
<feFlood flood-opacity="0" result="BackgroundImageFix"/>
<feColorMatrix in="SourceAlpha" type="matrix" values="0 0 0 0 0 0 0 0 0 0 0 0 0 0 0 0 0 0 127 0" result="hardAlpha"/>
<feOffset dy="4"/>
<feGaussianBlur stdDeviation="2"/>
<feComposite in2="hardAlpha" operator="out"/>
<feColorMatrix type="matrix" values="0 0 0 0 0 0 0 0 0 0 0 0 0 0 0 0 0 0 0.25 0"/>
<feBlend mode="normal" in2="BackgroundImageFix" result="effect1_dropShadow_438_412"/>
<feBlend mode="normal" in="SourceGraphic" in2="effect1_dropShadow_438_412" result="shape"/>
</filter>
</defs>
</svg>
